<svg width="20" height="20" viewBox="0 0 20 20" fill="none" xmlns="http://www.w3.org/2000/svg">
<path d="M17.3329 13.4666L19.3894 3.88942H3.64282L5.93432 13.4666H17.3329Z" fill="#FFCA19"/>
<path d="M19.3894 3.88942H3.64282L3.99535 5.41706H18.9193L19.3894 3.88942Z" fill="#E9AE21"/>
<path d="M17.333 14.1129H5.93432C5.64055 14.1129 5.4055 13.9366 5.34674 13.6429L3.05528 4.00691C2.99652 3.83062 3.05528 3.65438 3.1728 3.53686C3.29033 3.41933 3.46657 3.30185 3.64286 3.30185H19.3895C19.5657 3.30185 19.742 3.36061 19.8595 3.53686C19.977 3.65438 20.0358 3.88938 19.977 4.06567L17.9206 13.5841C17.8618 13.8779 17.6267 14.1129 17.333 14.1129ZM6.40433 12.8791H16.8629L18.6256 4.47696H4.40664L6.40433 12.8791Z" fill="black"/>
<path d="M3.64285 4.47696C3.34908 4.47696 3.11404 4.30068 3.05528 4.00691L2.58527 2.30299H0.587575C0.235006 2.30299 0 2.00922 0 1.71545C0 1.42168 0.293767 1.12788 0.587575 1.12788H3.05532C3.34908 1.12788 3.58413 1.30416 3.64289 1.59793L4.23047 3.7719C4.28923 4.06567 4.11294 4.35948 3.81918 4.47696C3.76038 4.47696 3.70161 4.47696 3.64285 4.47696Z" fill="black"/>
<path d="M16.7453 17.1095H3.99534C2.82023 17.1095 1.88013 16.1694 1.88013 14.9943C1.88013 13.8192 2.82023 12.8791 3.99534 12.8791H16.7453C17.0979 12.8791 17.3329 13.1728 17.3329 13.4666C17.3329 13.7604 17.0391 14.0542 16.7453 14.0542H3.99534C3.46653 14.0542 3.05524 14.4655 3.05524 14.9943C3.05524 15.5231 3.46653 15.9344 3.99534 15.9344H16.7453C17.0979 15.9344 17.3329 16.2282 17.3329 16.522C17.3917 16.8745 17.0979 17.1095 16.7453 17.1095Z" fill="black"/>
<path d="M15.3941 18.2846C16.3352 18.2846 17.098 17.5217 17.098 16.5807C17.098 15.6396 16.3352 14.8767 15.3941 14.8767C14.4531 14.8767 13.6902 15.6396 13.6902 16.5807C13.6902 17.5217 14.4531 18.2846 15.3941 18.2846Z" fill="#C0D0D6"/>
<path d="M15.3937 17.1683C15.7182 17.1683 15.9813 16.9052 15.9813 16.5807C15.9813 16.2562 15.7182 15.9931 15.3937 15.9931C15.0692 15.9931 14.8062 16.2562 14.8062 16.5807C14.8062 16.9052 15.0692 17.1683 15.3937 17.1683Z" fill="#849DA9"/>
<path d="M15.3942 18.8721C14.1015 18.8721 13.0439 17.8145 13.0439 16.5219C13.0439 15.2293 14.1015 14.1717 15.3942 14.1717C16.6868 14.1717 17.7444 15.2293 17.7444 16.5219C17.7444 17.8145 16.6868 18.8721 15.3942 18.8721ZM15.3942 15.4643C14.7479 15.4643 14.2778 15.9931 14.2778 16.5806C14.2778 17.2269 14.8066 17.697 15.3942 17.697C15.9817 17.697 16.5105 17.1682 16.5105 16.5806C16.5105 15.9343 15.9817 15.4643 15.3942 15.4643Z" fill="black"/>
<path d="M6.05182 18.2846C6.99287 18.2846 7.75574 17.5217 7.75574 16.5807C7.75574 15.6396 6.99287 14.8767 6.05182 14.8767C5.11077 14.8767 4.3479 15.6396 4.3479 16.5807C4.3479 17.5217 5.11077 18.2846 6.05182 18.2846Z" fill="#C0D0D6"/>
<path d="M6.05193 17.1683C6.37644 17.1683 6.63951 16.9052 6.63951 16.5807C6.63951 16.2562 6.37644 15.9931 6.05193 15.9931C5.72742 15.9931 5.46436 16.2562 5.46436 16.5807C5.46436 16.9052 5.72742 17.1683 6.05193 17.1683Z" fill="#849DA9"/>
<path d="M6.05188 18.8721C4.75925 18.8721 3.70166 17.8145 3.70166 16.5219C3.70166 15.2293 4.75925 14.1717 6.05188 14.1717C7.34451 14.1717 8.4021 15.2293 8.4021 16.5219C8.4021 17.8145 7.34451 18.8721 6.05188 18.8721ZM6.05188 15.4643C5.40558 15.4643 4.93553 15.9931 4.93553 16.5806C4.93553 17.2269 5.46434 17.697 6.05188 17.697C6.63941 17.697 7.16823 17.1682 7.16823 16.5806C7.16827 15.9343 6.69822 15.4643 6.05188 15.4643Z" fill="black"/>
<path d="M8.81341 10.7051C8.46088 10.7051 8.22583 10.4113 8.22583 10.1175V6.65094C8.22583 6.29842 8.5196 6.06337 8.81341 6.06337C9.16593 6.06337 9.40098 6.35714 9.40098 6.65094V10.1176C9.40094 10.4701 9.16593 10.7051 8.81341 10.7051Z" fill="black"/>
<path d="M11.516 10.7051C11.1635 10.7051 10.9285 10.4113 10.9285 10.1175V6.65094C10.9285 6.29842 11.2222 6.06337 11.516 6.06337C11.8686 6.06337 12.1036 6.35714 12.1036 6.65094V10.1176C12.1036 10.4701 11.8686 10.7051 11.516 10.7051Z" fill="black"/>
<path d="M14.2189 10.7051C13.8664 10.7051 13.6313 10.4113 13.6313 10.1175V6.65094C13.6313 6.29842 13.9251 6.06337 14.2189 6.06337C14.5715 6.06337 14.8065 6.35714 14.8065 6.65094V10.1176C14.8065 10.4701 14.5715 10.7051 14.2189 10.7051Z" fill="black"/>
</svg>
