<?xml version="1.0" encoding="utf-8"?>
<!-- Generator: Adobe Illustrator 24.3.0, SVG Export Plug-In . SVG Version: 6.00 Build 0)  -->
<svg version="1.1" id="Layer_2" xmlns="http://www.w3.org/2000/svg" xmlns:xlink="http://www.w3.org/1999/xlink" x="0px" y="0px"
	 viewBox="0 0 953 336" style="enable-background:new 0 0 953 336;" xml:space="preserve">
<style type="text/css">
	.st0{fill:#9F14FF;}
	.st1{opacity:0.5;}
	.st2{opacity:0.44;clip-path:url(#SVGID_2_);fill:#D9A1FF;}
	.st3{clip-path:url(#SVGID_4_);}
	.st4{opacity:0.44;clip-path:url(#SVGID_6_);fill:#D9A1FF;}
	.st5{opacity:0.44;clip-path:url(#SVGID_8_);fill:#D9A1FF;}
	.st6{opacity:0.44;clip-path:url(#SVGID_10_);fill:#D9A1FF;}
	.st7{opacity:0.44;clip-path:url(#SVGID_12_);fill:#D9A1FF;}
	.st8{opacity:0.44;clip-path:url(#SVGID_14_);fill:#D9A1FF;}
	.st9{opacity:0.44;clip-path:url(#SVGID_16_);fill:#D9A1FF;}
	.st10{opacity:0.44;clip-path:url(#SVGID_18_);fill:#D9A1FF;}
	.st11{opacity:0.44;clip-path:url(#SVGID_20_);fill:#D9A1FF;}
	.st12{fill:#1B1E3D;}
	.st13{fill:#808080;}
</style>
<g id="location">
	<path class="st0" d="M217.1,192.7c-5-3.29-11.67-2.46-15.75,1.91v0c-32.08,34.23-86.03,35.98-120.26,3.9
		c-0.9-0.85-1.78-1.71-2.62-2.59c-4.06-4.23-10.68-4.87-15.52-1.55c-7.39,5.08-14.27,10.84-20.53,17.22
		c-4.54,4.62-4.61,12.13-0.16,16.84c1.79,1.9,3.65,3.75,5.58,5.56c53.79,50.41,138.57,47.67,188.99-6.13
		c0.5-0.53,0.99-1.06,1.47-1.6c4.39-4.84,4.14-12.4-0.55-16.96C231.42,203.14,224.5,197.57,217.1,192.7z"/>
	<g class="st1">
		<defs>
			<path id="SVGID_1_" class="st1" d="M217.1,192.7c-5-3.29-11.67-2.46-15.75,1.91v0c-32.08,34.23-86.03,35.98-120.26,3.9
				c-0.9-0.85-1.78-1.71-2.62-2.59c-4.06-4.23-10.68-4.87-15.52-1.55c-7.39,5.08-14.27,10.84-20.53,17.22
				c-4.54,4.62-4.61,12.13-0.16,16.84c1.79,1.9,3.65,3.75,5.58,5.56c53.79,50.41,138.57,47.67,188.99-6.13
				c0.5-0.53,0.99-1.06,1.47-1.6c4.39-4.84,4.14-12.4-0.55-16.96C231.42,203.14,224.5,197.57,217.1,192.7z"/>
		</defs>
		<clipPath id="SVGID_2_">
			<use xlink:href="#SVGID_1_"  style="overflow:visible;"/>
		</clipPath>
		<path class="st2" d="M238.77,201.84c-6.41-4.21-14.95-3.15-20.19,2.45v0c-41.12,43.88-110.28,46.12-154.16,5
			c-1.16-1.08-2.28-2.19-3.36-3.32c-5.21-5.42-13.69-6.24-19.89-1.99c-9.47,6.51-18.29,13.9-26.32,22.07
			c-5.82,5.93-5.91,15.55-0.2,21.59c2.3,2.43,4.68,4.81,7.15,7.12c68.95,64.62,177.62,61.1,242.25-7.85
			c0.64-0.68,1.27-1.36,1.89-2.05c5.63-6.21,5.3-15.89-0.7-21.74C257.12,215.22,248.27,208.08,238.77,201.84z"/>
	</g>
	<path class="st0" d="M162.23,7.66l-16.59,16.59c-3.54,3.54-9.29,3.54-12.83,0L116.39,7.83c-2.25-2.25-5.52-3.15-8.61-2.4
		C48.86,19.77,4.97,72.96,4.97,136.24c0,9.63,1.02,19.02,2.95,28.08c1.57,7.37,11.06,9.6,15.84,3.77
		c7.48-9.13,16.02-17.35,25.42-24.5c2.29-1.74,3.6-4.48,3.6-7.36l0,0c0-36.44,22.56-67.69,54.44-80.56
		c3.33-1.34,7.14-0.48,9.68,2.05l15.91,15.91c3.54,3.54,9.29,3.54,12.83,0l16.15-16.15c2.52-2.52,6.3-3.39,9.62-2.08
		c32.21,12.71,55.06,44.14,55.06,80.81l0,0c0,2.88,1.31,5.62,3.6,7.36c9.4,7.14,17.94,15.37,25.42,24.5
		c4.78,5.83,14.27,3.6,15.84-3.77c1.93-9.06,2.95-18.45,2.95-28.08c0-63.52-44.22-116.89-103.48-130.99
		C167.72,4.52,164.47,5.42,162.23,7.66z"/>
	<g>
		<defs>
			<path id="SVGID_3_" d="M162.23,7.66l-16.59,16.59c-3.54,3.54-9.29,3.54-12.83,0L116.39,7.83c-2.25-2.25-5.52-3.15-8.61-2.4
				C48.86,19.77,4.97,72.96,4.97,136.24c0,9.63,1.02,19.02,2.95,28.08c1.57,7.37,11.06,9.6,15.84,3.77
				c7.48-9.13,16.02-17.35,25.42-24.5c2.29-1.74,3.6-4.48,3.6-7.36l0,0c0-36.44,22.56-67.69,54.44-80.56
				c3.33-1.34,7.14-0.48,9.68,2.05l15.91,15.91c3.54,3.54,9.29,3.54,12.83,0l16.15-16.15c2.52-2.52,6.3-3.39,9.62-2.08
				c32.21,12.71,55.06,44.14,55.06,80.81l0,0c0,2.88,1.31,5.62,3.6,7.36c9.4,7.14,17.94,15.37,25.42,24.5
				c4.78,5.83,14.27,3.6,15.84-3.77c1.93-9.06,2.95-18.45,2.95-28.08c0-63.52-44.22-116.89-103.48-130.99
				C167.72,4.52,164.47,5.42,162.23,7.66z"/>
		</defs>
		<clipPath id="SVGID_4_">
			<use xlink:href="#SVGID_3_"  style="overflow:visible;"/>
		</clipPath>
		<g class="st3">
			<defs>
				<path id="SVGID_5_" d="M103.09-32.91c-2.62,9.69,4.21,18.53,16.03,20.93l0,0c92.69,18.89,138.14,94.3,101.3,168.11
					c-0.97,1.95-2,3.87-3.09,5.76c-5.2,9.09-1.33,19.01,9.01,23.3c15.79,6.55,32.56,11.82,50.05,15.75
					c12.68,2.85,27.59-2.93,33.45-12.95c2.36-4.03,4.58-8.13,6.65-12.29C374.37,59.72,302.97-58.78,157.3-88.47
					c-1.43-0.29-2.87-0.57-4.31-0.85c-13-2.47-27.75,3.8-33.13,14.04C112.6-61.45,106.96-47.26,103.09-32.91z"/>
			</defs>
			<clipPath id="SVGID_6_">
				<use xlink:href="#SVGID_5_"  style="overflow:visible;"/>
			</clipPath>
			<path class="st4" d="M94.93,45.52c-2.62,9.69,4.21,18.53,16.03,20.93h0c92.69,18.89,138.14,94.3,101.3,168.11
				c-0.97,1.95-2,3.87-3.09,5.76c-5.2,9.09-1.33,19.01,9.01,23.3c15.79,6.55,32.56,11.82,50.05,15.75
				c12.68,2.85,27.59-2.93,33.45-12.95c2.36-4.03,4.58-8.13,6.65-12.29c57.89-115.97-13.51-234.48-159.18-264.17
				c-1.43-0.29-2.87-0.57-4.31-0.85c-13-2.47-27.75,3.8-33.13,14.04C104.44,16.99,98.81,31.17,94.93,45.52z"/>
		</g>
		<g class="st3">
			<defs>
				<path id="SVGID_7_" d="M176.75-32.91c2.62,9.69-4.21,18.53-16.03,20.93l0,0C68.02,6.91,22.58,82.32,59.42,156.12
					c0.97,1.95,2,3.87,3.09,5.76c5.2,9.09,1.33,19.01-9.01,23.3C37.71,191.73,20.95,197,3.46,200.94
					c-12.68,2.85-27.59-2.93-33.45-12.95c-2.36-4.03-4.58-8.13-6.65-12.29C-94.53,59.72-23.13-58.78,122.54-88.47
					c1.43-0.29,2.87-0.57,4.31-0.85c13-2.47,27.75,3.8,33.13,14.04C167.24-61.45,172.88-47.26,176.75-32.91z"/>
			</defs>
			<clipPath id="SVGID_8_">
				<use xlink:href="#SVGID_7_"  style="overflow:visible;"/>
			</clipPath>
			<path class="st5" d="M184.91,45.52c2.62,9.69-4.21,18.53-16.03,20.93h0c-92.69,18.89-138.14,94.3-101.3,168.11
				c0.97,1.95,2,3.87,3.09,5.76c5.2,9.09,1.33,19.01-9.01,23.3c-15.79,6.55-32.56,11.82-50.05,15.75
				c-12.68,2.85-27.59-2.93-33.45-12.95c-2.36-4.03-4.58-8.13-6.65-12.29C-86.37,138.16-14.97,19.65,130.7-10.03
				c1.43-0.29,2.87-0.57,4.31-0.85c13-2.47,27.75,3.8,33.13,14.04C175.4,16.99,181.04,31.17,184.91,45.52z"/>
		</g>
	</g>
	<path class="st0" d="M169.49,295.02l-20.9,21.16c-2.15,2.17-5.65,2.19-7.82,0.05l-21.16-20.9c-3.51-3.46-1.08-9.43,3.85-9.46
		l42.06-0.26C170.45,285.58,172.95,291.52,169.49,295.02z"/>
</g>
<path class="st0" d="M158.66,129.32H88.64c-3.49,0-6.31-2.83-6.31-6.31v-6.82c0-3.49,2.83-6.31,6.31-6.31h70.02
	c3.49,0,6.31,2.83,6.31,6.31v6.82C164.98,126.5,162.15,129.32,158.66,129.32z"/>
<g>
	<defs>
		<path id="SVGID_9_" d="M158.66,129.32H88.64c-3.49,0-6.31-2.83-6.31-6.31v-6.82c0-3.49,2.83-6.31,6.31-6.31h70.02
			c3.49,0,6.31,2.83,6.31,6.31v6.82C164.98,126.5,162.15,129.32,158.66,129.32z"/>
	</defs>
	<clipPath id="SVGID_10_">
		<use xlink:href="#SVGID_9_"  style="overflow:visible;"/>
	</clipPath>
	<path class="st6" d="M83.51,129.32h-4.88c-2.73,0-4.95-2.21-4.95-4.95v-9.56c0-2.73,2.21-4.95,4.95-4.95h4.88
		c2.73,0,4.95,2.21,4.95,4.95v9.56C88.46,127.11,86.24,129.32,83.51,129.32z"/>
	<path class="st6" d="M85.98,129.32H81.1c-2.73,0-4.95-2.21-4.95-4.95v-9.56c0-2.73,2.21-4.95,4.95-4.95h4.88
		c2.73,0,4.95,2.21,4.95,4.95v9.56C90.92,127.11,88.71,129.32,85.98,129.32z"/>
</g>
<path class="st0" d="M184.62,129.32h-7.09c-3.49,0-6.31-2.83-6.31-6.31v-6.82c0-3.49,2.83-6.31,6.31-6.31h7.09
	c3.49,0,6.31,2.83,6.31,6.31v6.82C190.94,126.5,188.11,129.32,184.62,129.32z"/>
<g>
	<defs>
		<path id="SVGID_11_" d="M184.62,129.32h-7.09c-3.49,0-6.31-2.83-6.31-6.31v-6.82c0-3.49,2.83-6.31,6.31-6.31h7.09
			c3.49,0,6.31,2.83,6.31,6.31v6.82C190.94,126.5,188.11,129.32,184.62,129.32z"/>
	</defs>
	<clipPath id="SVGID_12_">
		<use xlink:href="#SVGID_11_"  style="overflow:visible;"/>
	</clipPath>
	<path class="st7" d="M167.47,129.32h-4.88c-2.73,0-4.95-2.21-4.95-4.95v-9.56c0-2.73,2.21-4.95,4.95-4.95h4.88
		c2.73,0,4.95,2.21,4.95,4.95v9.56C172.42,127.11,170.2,129.32,167.47,129.32z"/>
	<path class="st7" d="M169.94,129.32h-4.88c-2.73,0-4.95-2.21-4.95-4.95v-9.56c0-2.73,2.21-4.95,4.95-4.95h4.88
		c2.73,0,4.95,2.21,4.95,4.95v9.56C174.89,127.11,172.67,129.32,169.94,129.32z"/>
</g>
<path class="st0" d="M158.66,155.25H88.64c-3.49,0-6.31-2.83-6.31-6.31v-6.82c0-3.49,2.83-6.31,6.31-6.31h70.02
	c3.49,0,6.31,2.83,6.31,6.31v6.82C164.98,152.43,162.15,155.25,158.66,155.25z"/>
<g>
	<defs>
		<path id="SVGID_13_" d="M158.66,155.25H88.64c-3.49,0-6.31-2.83-6.31-6.31v-6.82c0-3.49,2.83-6.31,6.31-6.31h70.02
			c3.49,0,6.31,2.83,6.31,6.31v6.82C164.98,152.43,162.15,155.25,158.66,155.25z"/>
	</defs>
	<clipPath id="SVGID_14_">
		<use xlink:href="#SVGID_13_"  style="overflow:visible;"/>
	</clipPath>
	<path class="st8" d="M83.51,155.25h-4.88c-2.73,0-4.95-2.21-4.95-4.95v-9.56c0-2.73,2.21-4.95,4.95-4.95h4.88
		c2.73,0,4.95,2.21,4.95,4.95v9.56C88.46,153.04,86.24,155.25,83.51,155.25z"/>
	<path class="st8" d="M85.98,155.25H81.1c-2.73,0-4.95-2.21-4.95-4.95v-9.56c0-2.73,2.21-4.95,4.95-4.95h4.88
		c2.73,0,4.95,2.21,4.95,4.95v9.56C90.92,153.04,88.71,155.25,85.98,155.25z"/>
</g>
<path class="st0" d="M184.62,155.25h-7.09c-3.49,0-6.31-2.83-6.31-6.31v-6.82c0-3.49,2.83-6.31,6.31-6.31h7.09
	c3.49,0,6.31,2.83,6.31,6.31v6.82C190.94,152.43,188.11,155.25,184.62,155.25z"/>
<g>
	<defs>
		<path id="SVGID_15_" d="M184.62,155.25h-7.09c-3.49,0-6.31-2.83-6.31-6.31v-6.82c0-3.49,2.83-6.31,6.31-6.31h7.09
			c3.49,0,6.31,2.83,6.31,6.31v6.82C190.94,152.43,188.11,155.25,184.62,155.25z"/>
	</defs>
	<clipPath id="SVGID_16_">
		<use xlink:href="#SVGID_15_"  style="overflow:visible;"/>
	</clipPath>
	<path class="st9" d="M167.47,155.25h-4.88c-2.73,0-4.95-2.21-4.95-4.95v-9.56c0-2.73,2.21-4.95,4.95-4.95h4.88
		c2.73,0,4.95,2.21,4.95,4.95v9.56C172.42,153.04,170.2,155.25,167.47,155.25z"/>
	<path class="st9" d="M169.94,155.25h-4.88c-2.73,0-4.95-2.21-4.95-4.95v-9.56c0-2.73,2.21-4.95,4.95-4.95h4.88
		c2.73,0,4.95,2.21,4.95,4.95v9.56C174.89,153.04,172.67,155.25,169.94,155.25z"/>
</g>
<path class="st0" d="M158.66,181.18H88.64c-3.49,0-6.31-2.83-6.31-6.31v-6.82c0-3.49,2.83-6.31,6.31-6.31h70.02
	c3.49,0,6.31,2.83,6.31,6.31v6.82C164.98,178.36,162.15,181.18,158.66,181.18z"/>
<g>
	<defs>
		<path id="SVGID_17_" d="M158.66,181.18H88.64c-3.49,0-6.31-2.83-6.31-6.31v-6.82c0-3.49,2.83-6.31,6.31-6.31h70.02
			c3.49,0,6.31,2.83,6.31,6.31v6.82C164.98,178.36,162.15,181.18,158.66,181.18z"/>
	</defs>
	<clipPath id="SVGID_18_">
		<use xlink:href="#SVGID_17_"  style="overflow:visible;"/>
	</clipPath>
	<path class="st10" d="M83.51,181.18h-4.88c-2.73,0-4.95-2.21-4.95-4.95v-9.56c0-2.73,2.21-4.95,4.95-4.95h4.88
		c2.73,0,4.95,2.21,4.95,4.95v9.56C88.46,178.97,86.24,181.18,83.51,181.18z"/>
	<path class="st10" d="M85.98,181.18H81.1c-2.73,0-4.95-2.21-4.95-4.95v-9.56c0-2.73,2.21-4.95,4.95-4.95h4.88
		c2.73,0,4.95,2.21,4.95,4.95v9.56C90.92,178.97,88.71,181.18,85.98,181.18z"/>
</g>
<path class="st0" d="M184.62,181.18h-7.09c-3.49,0-6.31-2.83-6.31-6.31v-6.82c0-3.49,2.83-6.31,6.31-6.31h7.09
	c3.49,0,6.31,2.83,6.31,6.31v6.82C190.94,178.36,188.11,181.18,184.62,181.18z"/>
<g>
	<defs>
		<path id="SVGID_19_" d="M184.62,181.18h-7.09c-3.49,0-6.31-2.83-6.31-6.31v-6.82c0-3.49,2.83-6.31,6.31-6.31h7.09
			c3.49,0,6.31,2.83,6.31,6.31v6.82C190.94,178.36,188.11,181.18,184.62,181.18z"/>
	</defs>
	<clipPath id="SVGID_20_">
		<use xlink:href="#SVGID_19_"  style="overflow:visible;"/>
	</clipPath>
	<path class="st11" d="M167.47,181.18h-4.88c-2.73,0-4.95-2.21-4.95-4.95v-9.56c0-2.73,2.21-4.95,4.95-4.95h4.88
		c2.73,0,4.95,2.21,4.95,4.95v9.56C172.42,178.97,170.2,181.18,167.47,181.18z"/>
	<path class="st11" d="M169.94,181.18h-4.88c-2.73,0-4.95-2.21-4.95-4.95v-9.56c0-2.73,2.21-4.95,4.95-4.95h4.88
		c2.73,0,4.95,2.21,4.95,4.95v9.56C174.89,178.97,172.67,181.18,169.94,181.18z"/>
</g>
<g id="Elmakan_1_">
	<path class="st12" d="M359.07,67.45H317.6v31.33h36.86v14.28H317.6v32.71h41.47v14.28h-58.97V53.17h58.97V67.45z"/>
	<path class="st12" d="M380.56,46.41h17.51v113.65h-17.51V46.41z"/>
	<path class="st12" d="M541.05,112.76c0-15.51-8.45-23.5-21.19-23.5c-12.9,0-21.35,7.99-21.35,23.5v47.3h-17.35v-47.3
		c0-15.51-8.45-23.5-21.2-23.5c-12.9,0-21.35,7.99-21.35,23.5v47.3h-17.51V75.44h17.51v9.68c5.68-6.91,14.9-11.06,25.03-11.06
		c13.36,0,24.57,5.68,30.41,16.74c5.22-10.29,17.2-16.74,29.49-16.74c19.81,0,34.86,12.44,34.86,36.09v49.91h-17.35V112.76z"/>
	<path class="st12" d="M614.76,74.06c14.28,0,24.11,6.76,29.33,13.67V75.44h17.66v84.62h-17.66v-12.59
		c-5.38,7.22-15.51,13.98-29.64,13.98c-21.96,0-39.62-17.97-39.62-44.08C574.83,91.26,592.49,74.06,614.76,74.06z M618.45,89.26
		c-13.05,0-25.65,9.83-25.65,28.1c0,18.28,12.59,28.87,25.65,28.87c13.21,0,25.65-10.29,25.65-28.57
		C644.09,99.55,631.66,89.26,618.45,89.26z"/>
	<path class="st12" d="M684.79,46.41h17.51v66.04l30.72-37.01h24.27l-39.01,42.39l39.01,42.23h-23.65l-31.33-36.4v36.4h-17.51V46.41
		z"/>
	<path class="st12" d="M803.96,74.06c14.28,0,24.11,6.76,29.33,13.67V75.44h17.66v84.62H833.3v-12.59
		c-5.38,7.22-15.51,13.98-29.64,13.98c-21.96,0-39.62-17.97-39.62-44.08C764.03,91.26,781.69,74.06,803.96,74.06z M807.65,89.26
		c-13.05,0-25.65,9.83-25.65,28.1c0,18.28,12.59,28.87,25.65,28.87c13.21,0,25.65-10.29,25.65-28.57
		C833.3,99.55,820.86,89.26,807.65,89.26z"/>
	<path class="st12" d="M934.04,112.76c0-15.51-8.45-23.5-21.2-23.5c-12.9,0-21.35,7.99-21.35,23.5v47.3h-17.51V75.44h17.51v9.68
		c5.68-6.91,15.05-11.06,25.19-11.06c19.81,0,34.71,12.44,34.71,36.09v49.91h-17.35V112.76z"/>
</g>
<g id="System_1_">
	<path class="st13" d="M320.47,234.96c-12.27,0-20.95-6.84-21.12-16.91h8.5c0.53,5.08,4.12,10.17,12.62,10.17
		c7.71,0,12.27-4.38,12.27-10.17c0-16.48-33.04-5.96-33.04-28.66c0-10.08,8.15-16.91,20.24-16.91c11.66,0,19.28,6.4,20.24,15.69
		h-8.76c-0.53-4.12-4.38-8.76-11.83-8.85c-6.57-0.18-11.74,3.24-11.74,9.82c0,15.77,32.95,5.96,32.95,28.57
		C340.81,226.37,333.71,234.96,320.47,234.96z"/>
	<path class="st13" d="M385.68,186.32h8.24L365,256.96h-8.24l9.46-23.14l-19.37-47.5h8.85l15.07,38.91L385.68,186.32z"/>
	<path class="st13" d="M418.9,235.14c-11.22,0-19.11-6.14-19.63-14.9h8.24c0.44,4.64,4.56,8.15,11.3,8.15c6.31,0,9.82-3.15,9.82-7.1
		c0-10.69-28.4-4.47-28.4-22.35c0-7.36,6.92-13.41,17.61-13.41c10.6,0,17.62,5.7,18.14,15.07h-7.98c-0.35-4.82-4.03-8.33-10.43-8.33
		c-5.87,0-9.38,2.8-9.38,6.66c0,11.39,27.87,5.17,28.22,22.35C436.43,229.18,429.51,235.14,418.9,235.14z"/>
	<path class="st13" d="M449.4,192.9h-6.22v-6.57h6.22v-12.09h7.98v12.09h12.53v6.57h-12.53v28.31c0,4.73,1.75,6.4,6.66,6.4h5.87
		v6.75h-7.19c-8.5,0-13.32-3.5-13.32-13.15V192.9z"/>
	<path class="st13" d="M500.33,235.14c-13.67,0-23.75-9.64-23.75-24.89c0-15.16,9.73-24.71,23.75-24.71
		c13.93,0,23.05,9.82,23.05,22.96c0,1.75-0.09,3.16-0.26,4.82h-38.39c0.61,9.73,7.45,15.07,15.6,15.07c7.19,0,11.74-3.68,13.5-8.85
		h8.59C519.96,228.3,512.24,235.14,500.33,235.14z M484.81,206.83h30.32c0.09-9.38-6.92-14.55-15.16-14.55
		C492.17,192.28,485.69,197.45,484.81,206.83z"/>
	<path class="st13" d="M603.22,207.18c0-9.82-5.26-14.81-13.15-14.81c-8.06,0-13.58,5.17-13.58,15.51v26.47h-7.89v-27.17
		c0-9.82-5.26-14.81-13.15-14.81c-8.06,0-13.58,5.17-13.58,15.51v26.47h-7.97v-48.03h7.97v6.92c3.16-5.08,8.85-7.8,15.16-7.8
		c7.89,0,14.46,3.51,17.62,10.69c2.81-6.92,9.64-10.69,17-10.69c10.96,0,19.46,6.84,19.46,20.6v28.31h-7.89V207.18z"/>
	<path class="st13" d="M641.18,235.14c-11.22,0-19.11-6.14-19.63-14.9h8.24c0.44,4.64,4.56,8.15,11.3,8.15
		c6.31,0,9.82-3.15,9.82-7.1c0-10.69-28.4-4.47-28.4-22.35c0-7.36,6.92-13.41,17.61-13.41c10.6,0,17.62,5.7,18.14,15.07h-7.98
		c-0.35-4.82-4.03-8.33-10.43-8.33c-5.87,0-9.38,2.8-9.38,6.66c0,11.39,27.87,5.17,28.22,22.35
		C658.7,229.18,651.78,235.14,641.18,235.14z"/>
</g>
</svg>
