<svg width="30" height="30" viewBox="0 0 30 30" fill="none" xmlns="http://www.w3.org/2000/svg">
<g clip-path="url(#clip0)">
<path d="M14.9984 0.148132C6.6991 0.164099 -0.0158795 6.90484 2.82055e-05 15.2041C0.0134705 22.2232 4.88421 28.2979 11.7324 29.8368C12.0701 29.9115 12.4043 29.6984 12.479 29.3607C12.4888 29.3164 12.4938 29.2712 12.4938 29.2257V25.8195C12.4938 25.4737 12.2135 25.1934 11.8677 25.1934H10.6154C9.05261 25.1934 7.98568 23.712 7.05024 22.4046L6.7622 22.0064C7.18349 22.2417 7.58617 22.5088 7.9669 22.8054C8.67141 23.4614 9.57792 23.8588 10.5378 23.9324C11.4817 24.0638 12.3534 23.4051 12.4848 22.4611C12.5032 22.3291 12.5062 22.1955 12.4938 22.0627V21.6257C12.4938 21.346 12.3083 21.1001 12.0392 21.0234C8.5654 20.0404 6.23243 17.4382 6.23243 14.5492C6.25832 12.9861 6.8995 11.4963 8.01691 10.4029C8.1973 10.217 8.24455 9.93928 8.13589 9.70418C7.68032 8.67247 7.74883 7.48462 8.31998 6.51214C9.19895 6.86616 9.98441 7.41812 10.6154 8.12504C10.7852 8.32656 11.0631 8.40017 11.3104 8.30912C13.6951 7.44929 16.3053 7.44929 18.69 8.30912C18.9362 8.39841 19.212 8.32491 19.3812 8.12504C20.0117 7.41776 20.7967 6.8654 21.6754 6.51085C22.2465 7.48333 22.315 8.67118 21.8595 9.70289C21.7508 9.93799 21.7981 10.2158 21.9785 10.4017C23.0966 11.4951 23.7383 12.9855 23.7642 14.5492C23.7642 17.5821 21.1732 20.2983 17.4615 21.1536C17.1245 21.2311 16.9141 21.5671 16.9915 21.9041C17.0037 21.9571 17.0228 22.0083 17.0482 22.0565C17.399 22.8448 17.5549 23.706 17.5028 24.5672V29.2257C17.5028 29.5715 17.7832 29.8518 18.129 29.8518C18.1745 29.8516 18.2198 29.8466 18.2642 29.8368C26.3616 28.0171 31.4507 19.9778 29.631 11.8805C28.0922 5.03232 22.0174 0.161633 14.9984 0.148132Z" fill="white"/>
</g>
<defs>
<clipPath id="clip0">
<rect width="30" height="30" fill="white"/>
</clipPath>
</defs>
</svg>
