<svg width="50" height="50" viewBox="0 0 50 50" fill="none" xmlns="http://www.w3.org/2000/svg">
<path d="M42.2695 42.6661C42.2695 46.7169 34.5371 50.0001 25 50.0001C24.4062 50.0001 23.8203 49.9874 23.2422 49.962C14.5303 49.589 7.73047 46.465 7.73047 42.6661C7.73047 40.1095 10.8125 37.8575 15.4844 36.545L31.1602 36.5782L34.6553 36.5851C39.249 37.9025 42.2695 40.1349 42.2695 42.6661Z" fill="#9BD8DA"/>
<path d="M42.2695 42.666C42.2695 46.7168 34.5371 50 25 50C24.4062 50 23.8203 49.9873 23.2422 49.9619C31.9541 49.5889 38.7539 46.4648 38.7539 42.666C38.7539 40.1348 35.7334 37.9023 31.1396 36.585L31.1602 36.5781L34.6553 36.585C39.249 37.9023 42.2695 40.1348 42.2695 42.666Z" fill="#3EAFA9"/>
<path d="M43.4873 18.4873C43.4873 8.29297 35.1943 0 25 0C14.8066 0 6.5127 8.29297 6.5127 18.4873C6.5127 29.1025 12.1504 33.9453 17.124 38.2178C20.957 41.5107 24.2676 44.3545 24.2676 49.2676C24.2676 49.6719 24.5957 50 25 50C25.4043 50 25.7324 49.6719 25.7324 49.2676C25.7324 48.7676 25.7666 48.2891 25.833 47.8291C26.4121 43.7715 29.4326 41.1758 32.876 38.2178C37.8496 33.9453 43.4873 29.1025 43.4873 18.4873Z" fill="#F77173"/>
<path d="M43.4873 18.4873C43.4873 8.29297 35.1943 0 25 0C32.5225 0.123047 39.499 8.89453 39.499 18.624C39.499 36.1816 27.0889 37.6191 25.833 47.8291C26.4121 43.7715 29.4326 41.1758 32.876 38.2178C37.8496 33.9453 43.4873 29.1025 43.4873 18.4873Z" fill="#ED485C"/>
<path d="M36.709 18.3984C36.709 22.8125 34.2539 26.6631 30.6377 28.6582L27.79 28.6357L19.1992 28.5664C15.6729 26.5469 13.291 22.7451 13.291 18.3984C13.291 12.2734 18.0195 7.23145 24.0176 6.73145C24.3408 6.70313 24.6689 6.68945 25 6.68945C31.4561 6.68945 36.709 11.9424 36.709 18.3984Z" fill="#E1F9FF"/>
<path d="M36.709 18.3984C36.709 22.8125 34.2539 26.6631 30.6377 28.6582L27.79 28.6357C31.4717 26.6621 33.9746 22.7783 33.9746 18.3096C33.9746 12.4385 29.6533 7.57617 24.0176 6.73145C24.3408 6.70313 24.6689 6.68945 25 6.68945C31.4561 6.68945 36.709 11.9424 36.709 18.3984Z" fill="#A6DFF5"/>
<path d="M30.6376 28.6581C29.9364 29.0448 29.1913 29.3622 28.413 29.5995C27.3329 29.9296 26.1864 30.1073 24.9999 30.1073C22.8905 30.1073 20.91 29.5467 19.1991 28.5663C19.1454 23.0516 19.2401 17.1786 19.2401 17.1786L24.9188 13.2909L28.3905 15.701L30.5975 17.2323C30.5975 17.2323 30.6942 23.1122 30.6376 28.6581Z" fill="#FFE59E"/>
<path d="M30.6377 28.6581C29.9365 29.0448 29.1914 29.3622 28.4131 29.5995C28.4551 23.2772 28.417 18.1591 28.3906 15.701L30.5977 17.2323C30.5977 17.2323 30.6943 23.1122 30.6377 28.6581Z" fill="#FFCA6C"/>
<path d="M32.9876 18.7907C32.8328 18.6399 29.1518 15.0683 25.3067 12.6693C25.0695 12.5212 24.7687 12.5212 24.5314 12.6693C20.6862 15.0682 17.0054 18.6399 16.8506 18.7907C16.561 19.0731 16.555 19.5366 16.8372 19.8263C17.1195 20.1161 17.5832 20.122 17.8729 19.8399C17.9084 19.8053 21.3455 16.471 24.9191 14.1585C28.4926 16.471 31.9298 19.8052 31.9653 19.8399C32.1077 19.9785 32.2921 20.0477 32.4764 20.0477C32.667 20.0476 32.8575 19.9737 33.0011 19.8263C33.2833 19.5365 33.2773 19.073 32.9876 18.7907Z" fill="#FEAF82"/>
<path d="M23.1934 23.3881C22.7889 23.3881 22.4609 23.7159 22.4609 24.1205V26.074C22.4609 26.4786 22.7889 26.8064 23.1934 26.8064C23.5979 26.8064 23.9258 26.4786 23.9258 26.074V24.1205C23.9258 23.7159 23.5979 23.3881 23.1934 23.3881Z" fill="white"/>
<path d="M26.8066 23.3881C26.4021 23.3881 26.0742 23.7159 26.0742 24.1205V26.074C26.0742 26.4786 26.4021 26.8064 26.8066 26.8064C27.2111 26.8064 27.5391 26.4786 27.5391 26.074V24.1205C27.5391 23.7159 27.2111 23.3881 26.8066 23.3881Z" fill="white"/>
<path d="M23.1934 18.3099C22.7889 18.3099 22.4609 18.6378 22.4609 19.0424V20.9959C22.4609 21.4005 22.7889 21.7283 23.1934 21.7283C23.5979 21.7283 23.9258 21.4005 23.9258 20.9959V19.0424C23.9258 18.6378 23.5979 18.3099 23.1934 18.3099Z" fill="white"/>
<path d="M26.8066 18.3099C26.4021 18.3099 26.0742 18.6378 26.0742 19.0424V20.9959C26.0742 21.4005 26.4021 21.7283 26.8066 21.7283C27.2111 21.7283 27.5391 21.4005 27.5391 20.9959V19.0424C27.5391 18.6378 27.2111 18.3099 26.8066 18.3099Z" fill="white"/>
</svg>
