<svg width="20" height="20" viewBox="0 0 20 20" fill="none" xmlns="http://www.w3.org/2000/svg">
<path d="M7.73456 15.0766C11.7906 15.0766 15.0787 11.7885 15.0787 7.73243C15.0787 3.67635 11.7906 0.388246 7.73456 0.388246C3.67848 0.388246 0.390381 3.67635 0.390381 7.73243C0.390381 11.7885 3.67848 15.0766 7.73456 15.0766Z" fill="#78D2FA"/>
<path d="M7.73444 13.2016C10.7549 13.2016 13.2035 10.753 13.2035 7.73251C13.2035 4.71203 10.7549 2.26345 7.73444 2.26345C4.71396 2.26345 2.26538 4.71203 2.26538 7.73251C2.26538 10.753 4.71396 13.2016 7.73444 13.2016Z" fill="#C8F5FF"/>
<path d="M13.7449 12.0442L19.2584 17.5576C19.7274 18.0266 19.7274 18.7872 19.2584 19.2563C19.0238 19.4908 18.7164 19.6082 18.409 19.6082C18.1016 19.6082 17.7942 19.4909 17.5596 19.2563L12.0461 13.7429L13.7449 12.0442Z" fill="#F5B955"/>
<path d="M13.7447 12.044L12.0459 13.7428L13.5259 15.2228L15.2247 13.524L13.7447 12.044Z" fill="#F0F0FA"/>
<path d="M7.73448 13.5921C10.9655 13.5921 13.5942 10.9635 13.5942 7.73245C13.5942 4.50143 10.9655 1.87272 7.73448 1.87272C4.50343 1.87272 1.87476 4.50139 1.87476 7.73241C1.87476 10.9634 4.50343 13.5921 7.73448 13.5921ZM7.73448 2.65401C10.5347 2.65401 12.8129 4.93213 12.8129 7.73241C12.8129 10.5327 10.5347 12.8108 7.73448 12.8108C4.93425 12.8108 2.65604 10.5327 2.65604 7.73241C2.65604 4.93213 4.93425 2.65401 7.73448 2.65401Z" fill="black"/>
<path d="M2.81754 12.6493C2.665 12.4968 2.41762 12.4968 2.26504 12.6493C2.1125 12.8018 2.1125 13.0492 2.26504 13.2018L2.30129 13.2378C2.37742 13.313 2.47668 13.3506 2.57586 13.3506C2.6766 13.3506 2.77726 13.3119 2.85367 13.2346C3.00535 13.0812 3.00391 12.8338 2.85047 12.6821L2.81754 12.6493Z" fill="black"/>
<path d="M19.5345 17.282L14.2126 11.9601C16.1698 8.9621 15.8337 4.89382 13.2037 2.26374C10.188 -0.752003 5.28088 -0.752003 2.26506 2.26374C1.01346 3.51538 0.223697 5.17249 0.0411974 6.92972C-0.138646 8.66163 0.274205 10.4199 1.20374 11.8806C1.31956 12.0626 1.56104 12.1162 1.74303 12.0004C1.92503 11.8846 1.9787 11.6431 1.86288 11.4611C0.130025 8.73796 0.531471 5.10218 2.81753 2.81616C5.52874 0.104989 9.9401 0.104989 12.6513 2.81616C15.3624 5.52733 15.3624 9.93874 12.6513 12.6499C10.3126 14.9887 6.62233 15.3547 3.87686 13.5201C3.69753 13.4003 3.45487 13.4485 3.33503 13.6279C3.21518 13.8073 3.26342 14.0499 3.4428 14.1697C4.74495 15.0398 6.23772 15.465 7.72393 15.465C9.20881 15.465 10.6867 15.04 11.9605 14.2103L13.2496 15.4995C13.2496 15.4995 13.2497 15.4996 13.2498 15.4996C13.2498 15.4997 13.2499 15.4997 13.2499 15.4998L17.2833 19.5331C17.5839 19.8337 17.9837 19.9994 18.4089 19.9994C18.834 19.9994 19.2337 19.8338 19.5345 19.5331C20.1551 18.9125 20.1551 17.9026 19.5345 17.282ZM13.2038 13.2024C13.3973 13.0089 13.5782 12.8075 13.7469 12.5993L14.6727 13.525C14.6704 13.5272 14.6679 13.5291 14.6657 13.5314L13.526 14.671L12.6003 13.7453C12.809 13.5764 13.0106 13.3956 13.2038 13.2024ZM18.9821 18.9807C18.829 19.1338 18.6254 19.2181 18.4089 19.2181C18.1924 19.2181 17.9889 19.1338 17.8357 18.9807L14.0785 15.2235L15.2181 14.0839C15.2204 14.0817 15.2223 14.0792 15.2245 14.0769L18.9821 17.8345C19.2981 18.1504 19.2981 18.6647 18.9821 18.9807Z" fill="black"/>
<path d="M8.9429 4.80709C10.131 5.29846 10.8987 6.44674 10.8987 7.73249C10.8987 7.94819 11.0736 8.12315 11.2894 8.12315C11.5052 8.12315 11.68 7.94823 11.68 7.73249C11.68 6.12944 10.7229 4.69776 9.24149 4.0851C9.04212 4.00272 8.81364 4.09741 8.73118 4.29678C8.64872 4.4962 8.74348 4.72459 8.9429 4.80709Z" fill="black"/>
<path d="M7.73445 4.56814C7.74898 4.56814 7.76344 4.56825 7.77793 4.56845C7.7798 4.56849 7.78164 4.56849 7.78352 4.56849C7.99668 4.56849 8.17102 4.3972 8.17402 4.18333C8.17707 3.96763 8.00465 3.79021 7.78887 3.7872C7.77074 3.78693 7.75262 3.78681 7.73441 3.78681C7.51867 3.78681 7.34375 3.96173 7.34375 4.17747C7.34375 4.39321 7.51871 4.56814 7.73445 4.56814Z" fill="black"/>
</svg>
