<svg width="50" height="50" viewBox="0 0 50 50" fill="none" xmlns="http://www.w3.org/2000/svg">
<g clip-path="url(#clip0)">
<path d="M48.9565 3.32626L30.6739 16.5436L27.6739 18.7175C26.0847 19.8916 23.9154 19.8916 22.3261 18.7175L19.3261 16.5436L1.02173 3.34796C2.03983 1.92419 3.68443 1.08156 5.4348 1.08706H44.5652C46.3027 1.08859 47.9348 1.92083 48.9565 3.32626Z" fill="#FFD54F"/>
<path d="M1.02182 3.3479L19.3262 16.5435L1.58707 34.2826C0.568457 33.2615 -0.00250009 31.8772 4.74646e-05 30.4348V6.52185C-0.00474193 5.38217 0.353036 4.27062 1.02182 3.3479Z" fill="#FFC107"/>
<path d="M50 6.52182V30.4349C50.0025 31.8773 49.4317 33.2615 48.4131 34.2827L30.674 16.5436L48.9565 3.32617C49.6353 4.25328 50.0007 5.37267 50 6.52182Z" fill="#FFC107"/>
<path d="M32.6087 40.2175C31.1652 40.2175 30.4348 39.1305 30.4348 36.9567C30.4703 33.9193 28.0369 31.4283 24.9995 31.3927C21.9621 31.3571 19.4711 33.7906 19.4356 36.828C19.4 39.8654 21.8334 42.3564 24.8708 42.3919C26.4987 42.411 28.0514 41.7078 29.1109 40.4719C29.8326 41.7088 31.1776 42.4468 32.6087 42.3914C36.9565 42.3914 36.9565 38.3001 36.9565 36.9567C36.9566 30.3533 31.6036 25.0001 25.0002 24.9999C18.3969 24.9997 13.0437 30.3528 13.0435 36.9563C13.0434 43.5596 18.3964 48.9128 24.9997 48.913C28.1021 48.9131 31.0832 47.7072 33.313 45.5503C33.7447 45.13 33.7538 44.4395 33.3337 44.0079C32.9134 43.5762 32.223 43.5671 31.7913 43.9872C27.9026 47.7379 21.7096 47.626 17.9589 43.7373C14.2082 39.8486 14.3201 33.6556 18.2088 29.9049C22.0975 26.1542 28.2905 26.2661 32.0412 30.1548C33.8024 31.9809 34.7854 34.4198 34.7826 36.9568C34.7826 39.3937 34.2348 40.2175 32.6087 40.2175ZM25 40.2175C23.1991 40.2175 21.7392 38.7576 21.7392 36.9567C21.7392 35.1557 23.1991 33.6958 25 33.6958C26.801 33.6958 28.2609 35.1557 28.2609 36.9567C28.2609 38.7576 26.801 40.2175 25 40.2175Z" fill="#455A64"/>
<path d="M30.674 16.5437L27.674 18.7176C26.0847 19.8917 23.9154 19.8917 22.3261 18.7176L19.3262 16.5437L1.58704 34.2828C2.6082 35.3014 3.99243 35.8724 5.43486 35.8697H10.9239C11.512 28.0963 18.2902 22.2714 26.0637 22.8595C33.0195 23.3857 38.5477 28.914 39.074 35.8697H44.5653C46.0077 35.8723 47.3919 35.3014 48.4131 34.2828L30.674 16.5437Z" fill="#FFA000"/>
</g>
<defs>
<clipPath id="clip0">
<rect width="50" height="50" fill="white"/>
</clipPath>
</defs>
</svg>
