<svg width="329" height="318" viewBox="0 0 329 318" fill="none" xmlns="http://www.w3.org/2000/svg">
<path d="M217.1 192.7C212.1 189.41 205.43 190.24 201.35 194.61C169.27 228.84 115.32 230.59 81.0901 198.51C80.1901 197.66 79.3101 196.8 78.4701 195.92C74.4101 191.69 67.7901 191.05 62.9501 194.37C55.5601 199.45 48.6801 205.21 42.4201 211.59C37.8801 216.21 37.8101 223.72 42.2601 228.43C44.0501 230.33 45.9101 232.18 47.8401 233.99C101.63 284.4 186.41 281.66 236.83 227.86C237.33 227.33 237.82 226.8 238.3 226.26C242.69 221.42 242.44 213.86 237.75 209.3C231.42 203.14 224.5 197.57 217.1 192.7Z" fill="#9F14FF"/>
<g opacity="0.5">
<path opacity="0.44" d="M238.77 201.84C232.36 197.63 223.82 198.69 218.58 204.29C177.46 248.17 108.3 250.41 64.4202 209.29C63.2602 208.21 62.1402 207.1 61.0602 205.97C55.8502 200.55 47.3702 199.73 41.1702 203.98C31.7002 210.49 22.8802 217.88 14.8502 226.05C9.03022 231.98 8.94021 241.6 14.6502 247.64C16.9502 250.07 19.3302 252.45 21.8002 254.76C90.7502 319.38 199.42 315.86 264.05 246.91C264.69 246.23 265.32 245.55 265.94 244.86C271.57 238.65 271.24 228.97 265.24 223.12C257.12 215.22 248.27 208.08 238.77 201.84Z" fill="#D9A1FF"/>
</g>
<path d="M162.23 7.65999L145.64 24.25C142.1 27.79 136.35 27.79 132.81 24.25L116.39 7.82999C114.14 5.57999 110.87 4.67999 107.78 5.42999C48.8597 19.77 4.96973 72.96 4.96973 136.24C4.96973 145.87 5.98973 155.26 7.91973 164.32C9.48973 171.69 18.9797 173.92 23.7597 168.09C31.2397 158.96 39.7797 150.74 49.1797 143.59C51.4697 141.85 52.7797 139.11 52.7797 136.23C52.7797 99.79 75.3397 68.54 107.22 55.67C110.55 54.33 114.36 55.19 116.9 57.72L132.81 73.63C136.35 77.17 142.1 77.17 145.64 73.63L161.79 57.48C164.31 54.96 168.09 54.09 171.41 55.4C203.62 68.11 226.47 99.54 226.47 136.21C226.47 139.09 227.78 141.83 230.07 143.57C239.47 150.71 248.01 158.94 255.49 168.07C260.27 173.9 269.76 171.67 271.33 164.3C273.26 155.24 274.28 145.85 274.28 136.22C274.28 72.7 230.06 19.33 170.8 5.22999C167.72 4.51999 164.47 5.41999 162.23 7.65999Z" fill="#9F14FF"/>
<path opacity="0.44" d="M94.9303 45.5201C92.3103 55.2101 99.1403 64.0501 110.96 66.4501C203.65 85.3401 249.1 160.75 212.26 234.56C211.29 236.51 210.26 238.43 209.17 240.32C203.97 249.41 207.84 259.33 218.18 263.62C233.97 270.17 250.74 275.44 268.23 279.37C280.91 282.22 295.82 276.44 301.68 266.42C304.04 262.39 306.26 258.29 308.33 254.13C366.22 138.16 294.82 19.6501 149.15 -10.0399C147.72 -10.3299 146.28 -10.6099 144.84 -10.8899C131.84 -13.3599 117.09 -7.0899 111.71 3.1501C104.44 16.9901 98.8103 31.1701 94.9303 45.5201Z" fill="#D9A1FF"/>
<path opacity="0.44" d="M184.91 45.5201C187.53 55.2101 180.7 64.0501 168.88 66.4501C76.1902 85.3401 30.7402 160.75 67.5802 234.56C68.5502 236.51 69.5802 238.43 70.6702 240.32C75.8702 249.41 72.0002 259.33 61.6602 263.62C45.8702 270.17 29.1002 275.44 11.6102 279.37C-1.06981 282.22 -15.9798 276.44 -21.8398 266.42C-24.1998 262.39 -26.4198 258.29 -28.4898 254.13C-86.3698 138.16 -14.9698 19.6501 130.7 -10.0299C132.13 -10.3199 133.57 -10.5999 135.01 -10.8799C148.01 -13.3499 162.76 -7.07989 168.14 3.16011C175.4 16.9901 181.04 31.1701 184.91 45.5201Z" fill="#D9A1FF"/>
<path d="M169.49 295.02L148.59 316.18C146.44 318.35 142.94 318.37 140.77 316.23L119.61 295.33C116.1 291.87 118.53 285.9 123.46 285.87L165.52 285.61C170.45 285.58 172.95 291.52 169.49 295.02Z" fill="#9F14FF"/>
</svg>
