<svg width="50" height="50" viewBox="0 0 50 50" fill="none" xmlns="http://www.w3.org/2000/svg">
<path d="M36.1783 23.6681C41.3731 23.6681 45.5844 19.4569 45.5844 14.262C45.5844 9.0672 41.3731 4.85596 36.1783 4.85596C30.9835 4.85596 26.7722 9.0672 26.7722 14.262C26.7722 19.4569 30.9835 23.6681 36.1783 23.6681Z" fill="#FCD462"/>
<path d="M35.3217 36.7413L30.473 28.6142C30.3594 28.424 30.2071 28.2597 30.0259 28.132C29.8448 28.0044 29.6388 27.9162 29.4214 27.8732C29.204 27.8302 28.98 27.8334 28.7639 27.8824C28.5478 27.9315 28.3444 28.0255 28.1669 28.1581C27.5514 28.6176 26.9426 29.0548 26.2041 29.5217L32.5494 40.1636C33.3366 39.7833 34.0988 39.3532 34.8311 38.8757C35.1717 38.6513 35.4127 38.3043 35.504 37.9068C35.5954 37.5093 35.5301 37.0918 35.3217 36.7413Z" fill="#9297AB"/>
<path d="M34.0283 34.5724H33.9823L33.9999 34.6014C34.2083 34.9524 34.2733 35.3702 34.1814 35.7679C34.0895 36.1656 33.8479 36.5126 33.5067 36.7366C32.7882 37.2077 32.0387 37.6298 31.2634 38.0001L32.554 40.1622C33.3386 39.7815 34.0991 39.3528 34.831 38.8785C35.1719 38.6542 35.4134 38.3073 35.5052 37.9097C35.5971 37.5121 35.5323 37.0944 35.3242 36.7433L34.0283 34.5724Z" fill="#828A9E"/>
<path d="M19.9324 10.933L15.0837 2.79992C14.8747 2.44961 14.5387 2.19334 14.1456 2.08437C13.7525 1.97539 13.3325 2.0221 12.9729 2.21478C12.2048 2.63217 11.4641 3.09821 10.7554 3.61005L17.1155 14.2763C17.8763 13.8398 18.5479 13.504 19.2473 13.1736C19.4468 13.0795 19.6245 12.9447 19.7689 12.7779C19.9133 12.6111 20.0212 12.4159 20.0858 12.205C20.1503 11.994 20.17 11.7718 20.1436 11.5528C20.1171 11.3337 20.0452 11.1226 19.9324 10.933Z" fill="#9297AB"/>
<path d="M17.1169 14.6142C17.0583 14.6143 17.0008 14.5991 16.9498 14.5702C16.8989 14.5413 16.8564 14.4997 16.8264 14.4494L10.4662 3.78384C10.4228 3.71079 10.4084 3.62403 10.4261 3.54087C10.4437 3.45771 10.4921 3.38427 10.5615 3.33519C11.2812 2.81475 12.0334 2.34082 12.8135 1.91627C13.2494 1.68143 13.7591 1.62413 14.2362 1.75634C14.7133 1.88855 15.1209 2.20005 15.3737 2.62573L20.2237 10.7595C20.3608 10.9897 20.4483 11.246 20.4804 11.512C20.5126 11.7779 20.4887 12.0477 20.4104 12.3039C20.332 12.5601 20.2009 12.7971 20.0255 12.9996C19.8501 13.2021 19.6343 13.3657 19.3919 13.4798C18.8108 13.7541 18.1081 14.098 17.2838 14.5697C17.233 14.5987 17.1755 14.6141 17.1169 14.6142ZM11.2075 3.70681L17.2379 13.8203C17.9574 13.4197 18.5804 13.1163 19.1047 12.869C19.2618 12.7951 19.4018 12.6893 19.5155 12.5581C19.6292 12.427 19.7143 12.2735 19.7652 12.1076C19.8161 11.9416 19.8317 11.7669 19.8111 11.5945C19.7904 11.4222 19.734 11.256 19.6453 11.1068L14.7939 2.97303C14.63 2.69703 14.3657 2.49506 14.0563 2.40932C13.747 2.32357 13.4165 2.36068 13.1338 2.51289C12.4689 2.87287 11.8257 3.27153 11.2075 3.70681Z" fill="#323C6B"/>
<path d="M22.0499 31.0486C17.8006 29.6385 12.7236 21.1608 13.7837 17.1824C14.0215 16.2898 15.3938 15.2655 17.1182 14.277L10.756 3.61011C7.82357 5.68376 5.52898 8.21011 5.04384 10.1297C2.67019 19.5142 14.7155 39.7155 24.0979 42.0892C26.0175 42.5743 29.331 41.7574 32.5492 40.1635L26.204 29.5216C24.4993 30.6 22.931 31.3412 22.0499 31.0486Z" fill="#FE7058"/>
<path d="M32.5539 40.1622C29.331 41.7568 26.0201 42.5743 24.1012 42.0879C15.135 39.8243 3.7296 21.2703 4.81744 11.4392C5.78366 21.6352 15.9458 37.1554 24.1012 39.2162C25.7499 39.6352 28.4391 39.0879 31.2093 37.9122L32.5539 40.1622Z" fill="#EA6453"/>
<path d="M35.2702 48.3108C34.8209 48.3107 34.379 48.1954 33.9869 47.976C33.5948 47.7566 33.2654 47.4403 33.0303 47.0574L29.5844 41.479C29.5387 41.4028 29.525 41.3117 29.546 41.2254C29.567 41.1391 29.6212 41.0646 29.6968 41.0179C29.7724 40.9713 29.8634 40.9563 29.9499 40.9762C30.0365 40.9961 30.1117 41.0493 30.1594 41.1243L33.6053 46.7033C33.8803 47.1349 34.3132 47.4418 34.8114 47.5584C35.3097 47.675 35.8338 47.592 36.2717 47.3273C36.7096 47.0625 37.0265 46.637 37.1548 46.1416C37.283 45.6462 37.2124 45.1203 36.958 44.6763L36.5634 44.006C36.2319 43.4608 36.1306 42.8063 36.2817 42.1863C36.4328 41.5664 36.824 41.0318 37.3692 40.7003C37.9144 40.3688 38.569 40.2674 39.1889 40.4185C39.8089 40.5696 40.3434 40.9608 40.6749 41.5061L44.4547 47.5371C44.5022 47.6131 44.5177 47.7049 44.4976 47.7922C44.4775 47.8796 44.4235 47.9554 44.3476 48.003C44.2716 48.0506 44.1798 48.066 44.0924 48.0459C44.0051 48.0259 43.9293 47.9719 43.8817 47.8959L40.102 41.8642C39.8605 41.4791 39.4773 41.2045 39.0351 41.0998C38.5928 40.9951 38.1272 41.0686 37.7387 41.3044C37.3502 41.5403 37.0702 41.9196 36.9591 42.3603C36.8481 42.8009 36.9149 43.2676 37.1452 43.6594L37.5398 44.3297C37.7777 44.7301 37.9052 45.1863 37.9093 45.652C37.9135 46.1177 37.7942 46.5762 37.5636 46.9807C37.3329 47.3853 36.9992 47.7215 36.5963 47.9552C36.1935 48.1888 35.7359 48.3115 35.2702 48.3108Z" fill="#323C6B"/>
<path d="M45.5811 14.2635C45.5832 15.6771 45.2652 17.0729 44.6508 18.3461C44.0365 19.6193 43.1417 20.7368 42.0338 21.6148C43.3619 19.7714 43.9776 17.5094 43.767 15.2471C43.5563 12.9849 42.5336 10.8754 40.888 9.30886C39.2423 7.74232 37.0851 6.82469 34.8152 6.72567C32.5453 6.62665 30.3163 7.35295 28.5405 8.77024C29.7029 7.15515 31.3475 5.9503 33.2379 5.32896C35.1283 4.70761 37.167 4.70178 39.0609 5.31231C40.9548 5.92283 42.6063 7.11825 43.7779 8.72666C44.9495 10.3351 45.5808 12.2736 45.5811 14.2635Z" fill="#F7BE56"/>
<path d="M33.6343 13.0871V13.7918H30.4978V13.7107C30.5012 13.412 30.5955 13.1215 30.7681 12.8776C30.8726 12.7213 30.9953 12.578 31.1336 12.4506C31.2897 12.3013 31.4789 12.1324 31.7093 11.9425C31.9397 11.7526 32.1296 11.5972 32.2782 11.4547C32.4027 11.342 32.5181 11.2198 32.6235 11.0891C32.7764 10.8915 32.8576 10.6478 32.8539 10.3979C32.8592 10.3032 32.8458 10.2084 32.8144 10.1188C32.7829 10.0293 32.7341 9.94689 32.6708 9.87629C32.5962 9.81065 32.5092 9.76063 32.415 9.72918C32.3208 9.69773 32.2212 9.68549 32.1221 9.69318C31.93 9.68506 31.7425 9.75332 31.6005 9.88305C31.4541 10.0392 31.3718 10.2447 31.3701 10.4587L31.3633 10.533H30.5998L30.6066 10.4452C30.6194 10.2485 30.6677 10.0558 30.7492 9.87629C30.8258 9.70853 30.9365 9.55852 31.0742 9.43575C31.2146 9.31843 31.3747 9.22693 31.5471 9.16548C31.737 9.10182 31.9361 9.06987 32.1363 9.07089C32.3527 9.06767 32.5681 9.10196 32.7728 9.17224C32.9452 9.23266 33.1024 9.3297 33.2336 9.4567C33.3615 9.57803 33.461 9.72617 33.5248 9.89048C33.5874 10.0573 33.6194 10.234 33.6194 10.4121C33.6188 10.5792 33.5961 10.7455 33.5519 10.9067C33.5029 11.0577 33.4297 11.1996 33.335 11.327C33.211 11.4946 33.0702 11.649 32.9147 11.7878C32.7383 11.9574 32.5147 12.1601 32.2512 12.3837C31.9798 12.5908 31.7322 12.8271 31.5127 13.0885L33.6343 13.0871Z" fill="#323C6B"/>
<path d="M36.5404 12.0438V9.09045H35.9647L33.885 12.1046V12.7209H35.7951V13.7911H36.5384V12.7215H37.1465V12.0459L36.5404 12.0438ZM34.7114 12.0438L35.7924 10.4857V12.0438H34.7114Z" fill="#323C6B"/>
<path d="M40.7471 9.41553L40.6863 9.54458L35.7005 19.4547H34.8059L34.8742 19.3331L39.8593 9.41553H40.7471Z" fill="#323C6B"/>
<path d="M42.0155 14.0562V14.6656L40.3689 18.7913H39.5426L41.0939 14.8487H38.9534V14.0562H42.0155Z" fill="#323C6B"/>
<path d="M36.1778 24.006C34.2506 24.006 32.3667 23.4346 30.7643 22.3639C29.162 21.2932 27.9131 19.7714 27.1756 17.9909C26.4381 16.2105 26.2451 14.2513 26.6211 12.3612C26.997 10.471 27.9251 8.73483 29.2878 7.37212C30.6505 6.00941 32.3867 5.08139 34.2768 4.70542C36.167 4.32945 38.1261 4.52241 39.9066 5.2599C41.6871 5.9974 43.2089 7.2463 44.2795 8.84868C45.3502 10.4511 45.9217 12.3349 45.9217 14.2621C45.9188 16.8455 44.8913 19.3222 43.0646 21.1489C41.2379 22.9757 38.7611 24.0032 36.1778 24.006ZM36.1778 5.19387C34.3842 5.19387 32.631 5.72571 31.1397 6.72214C29.6485 7.71857 28.4862 9.13484 27.7998 10.7918C27.1134 12.4488 26.9339 14.2722 27.2838 16.0312C27.6337 17.7903 28.4973 19.4061 29.7655 20.6743C31.0338 21.9425 32.6496 22.8062 34.4086 23.1561C36.1677 23.506 37.991 23.3264 39.648 22.6401C41.305 21.9537 42.7213 20.7914 43.7177 19.3002C44.7142 17.8089 45.246 16.0556 45.246 14.2621C45.2432 11.858 44.2868 9.55319 42.5868 7.85329C40.8868 6.1534 38.5819 5.19723 36.1778 5.19454V5.19387Z" fill="#323C6B"/>
<path d="M25.3574 42.5676C24.9064 42.5733 24.4564 42.5236 24.0175 42.4196C19.5945 41.2973 14.1722 36.1223 9.87224 28.9115C5.57224 21.7007 3.59724 14.4716 4.71616 10.0466C5.2067 8.1081 7.44589 5.54053 10.5614 3.33445C10.5995 3.30757 10.6426 3.28883 10.6882 3.27943C10.7338 3.27002 10.7809 3.27014 10.8264 3.27979C10.872 3.28943 10.9151 3.30839 10.9529 3.33547C10.9908 3.36255 11.0227 3.39717 11.0466 3.43715L17.4067 14.104C17.4296 14.1426 17.4446 14.1852 17.4508 14.2296C17.457 14.2739 17.4544 14.3191 17.443 14.3624C17.4316 14.4057 17.4117 14.4464 17.3845 14.4819C17.3573 14.5175 17.3233 14.5473 17.2844 14.5696C14.8871 15.9453 14.2337 16.7993 14.1087 17.2723C13.0952 21.0709 18.0621 29.3723 22.1567 30.7304C22.6081 30.8804 23.6432 30.7439 26.0263 29.2385C26.0645 29.214 26.1073 29.1975 26.152 29.19C26.1968 29.1824 26.2426 29.1839 26.2867 29.1945C26.3309 29.205 26.3725 29.2243 26.409 29.2513C26.4455 29.2782 26.4762 29.3123 26.4993 29.3513L32.8445 39.9932C32.8679 40.0331 32.8829 40.0774 32.8884 40.1234C32.894 40.1693 32.89 40.2159 32.8769 40.2602C32.8637 40.3046 32.8416 40.3457 32.8118 40.3811C32.7821 40.4166 32.7454 40.4455 32.704 40.4662C29.9763 41.8155 27.3087 42.5676 25.3574 42.5676ZM10.6547 4.09864C7.86008 6.1358 5.80129 8.5135 5.37156 10.2122C4.29454 14.4689 6.24183 21.5027 10.4533 28.5655C14.6648 35.6284 19.9256 40.6844 24.1831 41.7615C25.8851 42.1926 28.9526 41.5094 32.0729 40.0203L26.0925 29.9905C24.1074 31.2067 22.7817 31.6486 21.9432 31.3696C17.5121 29.8986 12.356 21.2277 13.4553 17.0946C13.6817 16.2439 14.6999 15.3067 16.6513 14.1547L10.6547 4.09864Z" fill="#323C6B"/>
<path d="M10.7019 19.577C10.6062 19.5769 10.5136 19.543 10.4405 19.4811C10.3674 19.4193 10.3186 19.3336 10.3026 19.2392C10.1468 18.4295 10.1418 17.598 10.2877 16.7865C10.4654 15.9547 11.3317 15.0574 12.9364 14.0446C12.9814 14.0162 13.0316 13.9969 13.0841 13.9878C13.1366 13.9788 13.1903 13.9802 13.2423 13.9919C13.2942 14.0036 13.3434 14.0255 13.3869 14.0562C13.4304 14.0869 13.4674 14.1259 13.4959 14.1709C13.5243 14.216 13.5436 14.2662 13.5526 14.3186C13.5617 14.3711 13.5603 14.4249 13.5485 14.4768C13.5368 14.5288 13.515 14.5779 13.4842 14.6214C13.4535 14.6649 13.4145 14.702 13.3695 14.7304C11.6371 15.8243 11.1688 16.5446 11.081 16.9554C10.9566 17.668 10.9639 18.3974 11.1026 19.1074C11.12 19.2134 11.0946 19.322 11.032 19.4092C10.9694 19.4965 10.8748 19.5554 10.7688 19.573C10.7467 19.5763 10.7243 19.5776 10.7019 19.577Z" fill="white"/>
<path d="M11.3642 22.0338C11.2816 22.0338 11.2009 22.0085 11.1331 21.9614C11.0652 21.9143 11.0134 21.8476 10.9845 21.7703C10.9106 21.5725 10.8405 21.3766 10.7743 21.1824C10.756 21.1317 10.748 21.0779 10.7508 21.0241C10.7535 20.9703 10.767 20.9176 10.7903 20.869C10.8137 20.8205 10.8465 20.7771 10.8868 20.7413C10.9272 20.7056 10.9742 20.6783 11.0252 20.661C11.0762 20.6436 11.1302 20.6366 11.1839 20.6404C11.2377 20.6442 11.2901 20.6586 11.3383 20.6829C11.3864 20.7071 11.4291 20.7407 11.4641 20.7817C11.4991 20.8227 11.5255 20.8703 11.5419 20.9216C11.6054 21.1081 11.673 21.2962 11.7446 21.4858C11.7676 21.5472 11.7755 21.6132 11.7674 21.6782C11.7593 21.7433 11.7356 21.8054 11.6983 21.8593C11.661 21.9131 11.6111 21.9572 11.5531 21.9876C11.495 22.018 11.4304 22.0338 11.3649 22.0338H11.3642Z" fill="white"/>
<path d="M32.5521 40.5007C32.4935 40.5007 32.4359 40.4856 32.385 40.4567C32.3341 40.4278 32.2915 40.3861 32.2615 40.3358L25.9163 29.6939C25.8712 29.6182 25.8574 29.5278 25.878 29.4421C25.8986 29.3564 25.9518 29.2821 26.0264 29.2351C26.8007 28.7453 27.4169 28.2973 27.9676 27.8838C28.1831 27.7227 28.4299 27.6088 28.6922 27.5492C28.9545 27.4897 29.2264 27.4859 29.4902 27.5381C29.7541 27.5904 30.004 27.6975 30.2238 27.8524C30.4436 28.0074 30.6284 28.2069 30.7663 28.4378L35.6122 36.5649C35.8666 36.9896 35.9468 37.4962 35.8363 37.9787C35.7257 38.4613 35.4329 38.8824 35.019 39.154C34.2756 39.6402 33.5019 40.0785 32.7028 40.4662C32.6559 40.4892 32.6043 40.501 32.5521 40.5007ZM26.6642 29.629L32.6811 39.7203C33.3581 39.3835 34.0146 39.0072 34.6474 38.5932C34.9155 38.4168 35.1051 38.1437 35.1766 37.8308C35.2481 37.5179 35.196 37.1895 35.0311 36.9142L30.1852 28.7838C30.0968 28.6336 29.9775 28.504 29.8351 28.4036C29.6928 28.3031 29.5306 28.2342 29.3595 28.2013C29.1883 28.1679 29.012 28.1705 28.8419 28.2091C28.6718 28.2478 28.5116 28.3215 28.3717 28.4257C27.8771 28.798 27.3305 29.1966 26.6642 29.6297V29.629Z" fill="#323C6B"/>
<path d="M45.6082 8.16417C45.5533 8.16426 45.4992 8.15095 45.4505 8.1254C45.4019 8.09985 45.3602 8.06283 45.3292 8.01755C43.9297 5.97395 41.8913 4.45291 39.5339 3.69322C39.452 3.66357 39.3847 3.60341 39.346 3.52532C39.3074 3.44722 39.3005 3.35722 39.3266 3.27412C39.3528 3.19101 39.41 3.12123 39.4864 3.07934C39.5628 3.03744 39.6525 3.02669 39.7366 3.04931C42.2379 3.85563 44.4007 5.46984 45.8852 7.6385C45.9201 7.68922 45.9404 7.74849 45.944 7.80991C45.9476 7.87134 45.9343 7.93258 45.9057 7.98703C45.877 8.04148 45.8341 8.08707 45.7814 8.11888C45.7287 8.1507 45.6684 8.16753 45.6069 8.16755L45.6082 8.16417Z" fill="#323C6B"/>
<path d="M46.9088 10.698C46.8395 10.698 46.7718 10.6767 46.715 10.637C46.6582 10.5972 46.615 10.5409 46.5913 10.4757L46.5277 10.296C46.4845 10.1723 46.4413 10.0487 46.3926 9.9291C46.3753 9.88824 46.3661 9.84437 46.3657 9.79998C46.3653 9.75559 46.3737 9.71156 46.3903 9.6704C46.407 9.62924 46.4315 9.59176 46.4626 9.5601C46.4938 9.52844 46.5308 9.50321 46.5717 9.48586C46.6125 9.46852 46.6564 9.45939 46.7008 9.459C46.7452 9.45861 46.7892 9.46696 46.8304 9.48359C46.8715 9.50022 46.909 9.52479 46.9407 9.5559C46.9723 9.58701 46.9976 9.62406 47.0149 9.66492C47.071 9.80005 47.1196 9.93519 47.1676 10.0703L47.2284 10.2419C47.247 10.293 47.253 10.3478 47.2459 10.4016C47.2388 10.4555 47.2188 10.5068 47.1877 10.5513C47.1565 10.5958 47.1151 10.6321 47.0669 10.6572C47.0187 10.6823 46.9652 10.6953 46.9108 10.6953L46.9088 10.698Z" fill="#323C6B"/>
<path d="M2.73655 13.9074C2.64947 13.9074 2.56572 13.8739 2.50277 13.8137C2.43982 13.7535 2.40255 13.6714 2.39872 13.5844C2.38588 13.2925 2.37844 13.0053 2.3798 12.7236C2.3798 12.634 2.41539 12.5481 2.47875 12.4847C2.5421 12.4213 2.62803 12.3857 2.71763 12.3857C2.80723 12.3857 2.89316 12.4213 2.95652 12.4847C3.01988 12.5481 3.05547 12.634 3.05547 12.7236C3.05547 12.9938 3.06155 13.2716 3.07372 13.552C3.07756 13.6415 3.0457 13.7288 2.98513 13.7949C2.92456 13.8609 2.84025 13.9001 2.75074 13.904L2.73655 13.9074Z" fill="#323C6B"/>
<path d="M2.81426 11.5149H2.77643C2.73232 11.51 2.68963 11.4964 2.65078 11.4749C2.61193 11.4534 2.57769 11.4245 2.55002 11.3898C2.52235 11.3551 2.50179 11.3153 2.48951 11.2727C2.47723 11.23 2.47347 11.1854 2.47845 11.1413C2.53356 10.6057 2.62499 10.0746 2.7521 9.55141C3.35037 7.70999 4.40224 6.04866 5.81088 4.72033C5.87307 4.65582 5.95833 4.61865 6.04792 4.617C6.1375 4.61535 6.22407 4.64936 6.28859 4.71154C6.3531 4.77373 6.39027 4.85899 6.39191 4.94858C6.39356 5.03816 6.35955 5.12473 6.29737 5.18925C4.97189 6.4336 3.97889 7.98989 3.40886 9.71627C3.28845 10.2098 3.20176 10.711 3.1494 11.2163C3.1398 11.2985 3.10038 11.3743 3.0386 11.4293C2.97683 11.4844 2.89701 11.5148 2.81426 11.5149Z" fill="#323C6B"/>
</svg>
