<svg width="515" height="400" viewBox="0 0 515 400" fill="none" xmlns="http://www.w3.org/2000/svg">
<g clip-path="url(#clip0)">
<path d="M432.695 0.928955L3.06104 118.221L60.9467 330.252L490.581 212.96L432.695 0.928955Z" fill="#F5F5F5"/>
<path d="M435.052 0L0.00390625 118.771L59.3068 335.992L494.355 217.221L435.052 0Z" fill="url(#paint0_linear)"/>
<path d="M438.534 22.3232L8.90088 139.616L60.9075 330.111L490.541 212.819L438.534 22.3232Z" fill="white"/>
<path d="M16.4206 130.608C19.3964 129.803 21.1555 126.736 20.3496 123.761C19.5436 120.785 16.4778 119.026 13.5019 119.832C10.526 120.638 8.76697 123.704 9.57297 126.679C10.3789 129.655 13.4447 131.414 16.4206 130.608Z" fill="#FF5252"/>
<path d="M33.8254 126.715C36.8158 125.899 38.5782 122.813 37.7618 119.822C36.9454 116.832 33.8593 115.069 30.8689 115.886C27.8785 116.702 26.1161 119.789 26.9325 122.779C27.7489 125.769 30.8349 127.532 33.8254 126.715Z" fill="#FFFF00"/>
<path d="M50.0744 122.278C53.0648 121.461 54.8272 118.375 54.0108 115.385C53.1944 112.394 50.1083 110.632 47.1179 111.449C44.1275 112.265 42.3651 115.351 43.1815 118.341C43.9979 121.332 47.0839 123.094 50.0744 122.278Z" fill="#69F0AE"/>
<path d="M121.952 108.479L8.8291 139.362L60.9044 330.111L174.028 299.227L121.952 108.479Z" fill="#B852FF"/>
<path d="M111.767 175.272C107.459 159.488 90.492 150.37 73.8806 154.894C57.2692 159.418 47.3071 175.919 51.5924 191.709C54.9752 204.099 66.1485 212.379 78.8355 213.176L76.8268 205.811C75.3712 200.489 78.7715 194.882 84.3959 193.351C89.9971 191.82 95.7729 194.923 97.2052 200.25L99.214 207.616C109.729 200.472 115.15 187.633 111.767 175.272Z" fill="url(#paint1_linear)"/>
<path d="M83.3622 188.857L82.9581 188.967C82.0708 189.209 81.548 190.125 81.7902 191.012L84.2222 199.92C84.4644 200.808 85.3797 201.331 86.267 201.088L86.6717 200.978C87.559 200.735 88.0819 199.82 87.8397 198.933L85.4076 190.025C85.1654 189.137 84.2496 188.614 83.3622 188.857Z" fill="url(#paint2_linear)"/>
<path d="M83.6207 190.536C90.0079 188.793 93.8425 182.46 92.186 176.392C90.5296 170.324 84.009 166.819 77.6218 168.563C71.2346 170.307 67.3994 176.639 69.0559 182.707C70.7124 188.775 77.2335 192.28 83.6207 190.536Z" fill="url(#paint3_linear)"/>
<path d="M84.3728 193.345C78.7716 194.876 75.3771 200.483 76.8036 205.805L78.8123 213.17C86.0321 213.611 93.1949 211.656 99.1908 207.61L97.1821 200.245C95.7498 194.923 89.9739 191.82 84.3728 193.345Z" fill="url(#paint4_linear)"/>
<path d="M68.798 182.125C67.4135 180.689 66.4627 178.89 66.0557 176.937C65.8641 175.954 65.8711 174.942 66.076 173.961C66.281 172.98 66.6798 172.05 67.2493 171.226C68.5593 169.403 70.7427 168.314 72.8737 167.528C75.0047 166.742 77.2988 166.247 79.3599 165.252C82.7538 163.611 85.3675 160.702 86.6379 157.153C87.293 158.7 87.7203 160.334 87.9072 162.003C87.9916 162.853 87.8985 163.711 87.6324 164.523C87.3669 165.336 86.9349 166.083 86.3643 166.719C87.9072 165.467 88.2158 167.301 88.111 168.518C89.2755 169.281 91.4123 168.868 91.8723 170.131C92.3934 171.374 92.5937 172.727 92.4545 174.067C92.2507 175.4 93.3919 177.351 92.0586 177.811" fill="url(#paint5_linear)"/>
<path d="M109.089 171.476C107.658 166.243 104.819 161.504 100.881 157.774C96.9417 154.044 92.0544 151.467 86.7519 150.324C81.4494 149.181 75.9344 149.516 70.8089 151.291C65.6829 153.067 61.1431 156.215 57.6838 160.394C54.2245 164.572 51.9786 169.62 51.191 174.987C50.4033 180.353 51.1041 185.834 53.217 190.83C55.3298 195.826 58.7734 200.146 63.1728 203.32C67.5723 206.493 72.7583 208.398 78.1661 208.827L76.1574 201.461C75.4645 198.895 75.815 196.159 77.1332 193.851C78.4509 191.542 80.6284 189.849 83.1909 189.141C85.7568 188.448 88.4928 188.799 90.8014 190.117C93.11 191.435 94.8031 193.613 95.5111 196.175L97.5199 203.54C102.514 200.036 106.305 195.077 108.376 189.338C110.446 183.599 110.695 177.361 109.089 171.476Z" fill="#B852FF"/>
<path d="M82.1013 184.68L81.8766 184.741C80.9898 184.983 80.4664 185.899 80.7086 186.786L83.1412 195.694C83.3834 196.582 84.2987 197.105 85.186 196.862L85.4108 196.801C86.2975 196.558 86.8204 195.643 86.5781 194.756L84.1461 185.848C83.9039 184.96 82.9886 184.437 82.1013 184.68Z" fill="white" stroke="white" stroke-miterlimit="10"/>
<path d="M82.4495 186.335C88.5171 184.678 92.0932 178.416 90.4367 172.349C88.7802 166.281 82.5182 162.705 76.4507 164.361C70.3831 166.018 66.807 172.28 68.4635 178.347C70.12 184.415 76.382 187.991 82.4495 186.335Z" fill="white" stroke="white" stroke-miterlimit="10"/>
<path d="M83.1968 189.141C80.6344 189.849 78.4568 191.542 77.1392 193.851C75.821 196.159 75.4705 198.896 76.1633 201.462L78.1662 208.827C85.035 209.36 91.8757 207.491 97.52 203.54L95.5112 196.175C94.8032 193.614 93.1106 191.437 90.8038 190.119C88.497 188.802 85.7622 188.45 83.1968 189.141Z" fill="white" stroke="white" stroke-miterlimit="10"/>
<path d="M68.204 177.735C66.8602 176.272 65.935 174.474 65.5257 172.53C65.1268 170.571 65.5094 168.534 66.5912 166.853C67.8197 165.054 69.8575 163.977 71.907 163.237C73.9565 162.498 76.1108 162.02 78.0613 161.048C79.673 160.236 81.107 159.113 82.2802 157.743C83.4535 156.373 84.3431 154.782 84.8968 153.065C85.5425 154.616 85.9716 156.248 86.1719 157.915C86.2639 158.748 86.1859 159.589 85.9425 160.39C85.6997 161.191 85.2963 161.934 84.7571 162.573C86.2127 161.345 86.5038 163.202 86.4631 164.39C87.5635 165.164 89.6188 164.78 90.073 166.044C90.5917 167.285 90.8054 168.633 90.696 169.974C90.5155 171.301 91.6334 173.258 90.3641 173.7" fill="white"/>
<path d="M68.204 177.735C66.8602 176.272 65.935 174.474 65.5257 172.53C65.1268 170.571 65.5094 168.534 66.5912 166.853C67.8197 165.054 69.8575 163.977 71.907 163.237C73.9565 162.498 76.1108 162.02 78.0613 161.048C79.673 160.236 81.107 159.113 82.2802 157.743C83.4535 156.373 84.3431 154.782 84.8968 153.065C85.5425 154.616 85.9716 156.248 86.1719 157.915C86.2639 158.748 86.1859 159.589 85.9425 160.39C85.6997 161.191 85.2963 161.934 84.7571 162.573C86.2127 161.345 86.5038 163.202 86.4631 164.39C87.5635 165.164 89.6188 164.78 90.073 166.044C90.5917 167.285 90.8054 168.633 90.696 169.974C90.5155 171.301 91.6334 173.258 90.3641 173.7" stroke="white" stroke-miterlimit="10"/>
<path d="M85.2925 162.195C85.2925 162.195 93.1411 160.769 90.7888 173.636L85.2925 162.195Z" fill="white"/>
<path opacity="0.1" d="M147.694 203.931L34.5703 234.814L60.5255 329.885L173.649 299.002L147.694 203.931Z" fill="black"/>
<path d="M117.177 234.253L61.8169 249.367L63.2952 254.781L118.655 239.668L117.177 234.253Z" fill="white"/>
<path d="M133.865 243.275L65.2661 262.003L66.7444 267.417L135.343 248.689L133.865 243.275Z" fill="white"/>
<path d="M226.255 92.5625L144.423 114.903L155.43 155.221L237.262 132.88L226.255 92.5625Z" fill="#F5F5F5"/>
<path d="M236.935 131.671L155.104 154.012L166.11 194.329L247.943 171.988L236.935 131.671Z" fill="#E0E0E0"/>
<path d="M420.616 39.5042L338.784 61.8451L349.791 102.162L431.623 79.8218L420.616 39.5042Z" fill="#F5F5F5"/>
<path d="M431.291 78.6125L349.458 100.953L360.466 141.271L442.297 118.93L431.291 78.6125Z" fill="#E0E0E0"/>
<path d="M323.135 66.1123L241.303 88.4529L252.311 128.771L334.142 106.43L323.135 66.1123Z" fill="#F5F5F5"/>
<path d="M333.811 105.228L251.979 127.569L262.986 167.887L344.818 145.546L333.811 105.228Z" fill="#E0E0E0"/>
<path d="M248.715 183.998L167.281 206.053L178.147 246.174L259.581 224.119L248.715 183.998Z" fill="#E0E0E0"/>
<path d="M261.901 223.135L180.069 245.476L191.076 285.794L272.908 263.453L261.901 223.135Z" fill="#BDBDBD"/>
<path d="M445.58 130.964L363.748 153.304L374.755 193.622L456.587 171.282L445.58 130.964Z" fill="#F5F5F5"/>
<path d="M456.262 170.077L374.43 192.418L385.437 232.736L467.269 210.395L456.262 170.077Z" fill="#BDBDBD"/>
<path d="M348.101 157.577L266.269 179.918L277.276 220.236L359.108 197.895L348.101 157.577Z" fill="#F5F5F5"/>
<path d="M358.781 196.685L276.949 219.026L287.956 259.344L369.788 237.003L358.781 196.685Z" fill="#BDBDBD"/>
<path d="M169.599 159.755C174.583 158.395 177.595 153.519 176.325 148.866C175.054 144.213 169.983 141.544 164.998 142.905C160.013 144.266 157.002 149.141 158.272 153.794C159.542 158.448 164.614 161.117 169.599 159.755Z" fill="url(#paint6_linear)"/>
<path d="M167.308 158.391C171.608 157.227 174.15 152.796 172.985 148.497C171.82 144.196 167.391 141.655 163.09 142.819C158.79 143.984 156.248 148.414 157.413 152.714C158.577 157.014 163.008 159.556 167.308 158.391Z" fill="#B852FF"/>
<path d="M265.275 133.634C270.26 132.274 273.271 127.398 272.001 122.745C270.731 118.092 265.66 115.423 260.675 116.784C255.689 118.145 252.678 123.02 253.948 127.673C255.219 132.327 260.29 134.996 265.275 133.634Z" fill="url(#paint7_linear)"/>
<path d="M264.947 132.434C269.268 131.254 271.815 126.795 270.635 122.473C269.455 118.153 264.996 115.606 260.675 116.785C256.354 117.965 253.807 122.424 254.987 126.746C256.166 131.067 260.626 133.613 264.947 132.434Z" fill="#B852FF"/>
<path d="M363.959 106.692C368.944 105.33 371.955 100.455 370.685 95.802C369.415 91.1487 364.344 88.4797 359.359 89.841C354.374 91.2017 351.363 96.0774 352.633 100.731C353.903 105.383 358.974 108.052 363.959 106.692Z" fill="url(#paint8_linear)"/>
<path d="M363.631 105.491C367.952 104.311 370.499 99.8516 369.32 95.5308C368.14 91.2094 363.681 88.6627 359.359 89.8423C355.038 91.0219 352.491 95.4813 353.671 99.8027C354.851 104.124 359.31 106.671 363.631 105.491Z" fill="#B852FF"/>
<path d="M194.734 251.818C199.719 250.458 202.73 245.582 201.46 240.929C200.189 236.276 195.119 233.607 190.133 234.968C185.148 236.329 182.137 241.204 183.407 245.857C184.678 250.511 189.749 253.18 194.734 251.818Z" fill="url(#paint9_linear)"/>
<path d="M194.406 250.62C198.727 249.439 201.274 244.98 200.094 240.659C198.915 236.338 194.455 233.791 190.134 234.971C185.813 236.15 183.266 240.61 184.446 244.931C185.626 249.252 190.085 251.799 194.406 250.62Z" fill="#2196F3"/>
<path d="M290.41 225.697C295.395 224.337 298.407 219.461 297.136 214.808C295.866 210.155 290.795 207.486 285.81 208.847C280.825 210.208 277.813 215.083 279.084 219.736C280.354 224.39 285.425 227.059 290.41 225.697Z" fill="url(#paint10_linear)"/>
<path d="M290.077 224.499C294.398 223.319 296.945 218.859 295.765 214.538C294.585 210.217 290.126 207.67 285.805 208.85C281.483 210.03 278.937 214.489 280.116 218.81C281.296 223.131 285.756 225.678 290.077 224.499Z" fill="#2196F3"/>
<path d="M389.089 198.756C394.074 197.395 397.086 192.519 395.815 187.867C394.545 183.213 389.474 180.544 384.489 181.905C379.504 183.266 376.492 188.142 377.762 192.795C379.033 197.448 384.104 200.117 389.089 198.756Z" fill="url(#paint11_linear)"/>
<path d="M388.761 197.555C393.082 196.376 395.629 191.916 394.449 187.595C393.269 183.274 388.81 180.727 384.489 181.907C380.167 183.087 377.621 187.546 378.801 191.867C379.98 196.188 384.44 198.735 388.761 197.555Z" fill="#2196F3"/>
<path d="M511.313 174.818H65.9565V394.608H511.313V174.818Z" fill="#F5F5F5"/>
<path d="M513.828 174.544H62.8589V399.715H513.828V174.544Z" fill="url(#paint12_linear)"/>
<path d="M511.313 197.001H65.9565V394.469H511.313V197.001Z" fill="white"/>
<path d="M76.5591 191.121C79.659 191.121 82.1719 188.608 82.1719 185.508C82.1719 182.408 79.659 179.895 76.5591 179.895C73.4593 179.895 70.9463 182.408 70.9463 185.508C70.9463 188.608 73.4593 191.121 76.5591 191.121Z" fill="#FF5252"/>
<path d="M93.3975 191.121C96.4973 191.121 99.0103 188.608 99.0103 185.508C99.0103 182.408 96.4973 179.895 93.3975 179.895C90.2976 179.895 87.7847 182.408 87.7847 185.508C87.7847 188.608 90.2976 191.121 93.3975 191.121Z" fill="#FFFF00"/>
<path d="M110.242 191.121C113.342 191.121 115.855 188.608 115.855 185.508C115.855 182.408 113.342 179.895 110.242 179.895C107.142 179.895 104.629 182.408 104.629 185.508C104.629 188.608 107.142 191.121 110.242 191.121Z" fill="#69F0AE"/>
<path d="M183.22 196.74H65.9565V394.469H183.22V196.74Z" fill="#B852FF"/>
<path d="M155.796 258.492C155.796 242.131 141.823 228.862 124.612 228.862C107.401 228.862 93.4209 242.125 93.4209 258.492C93.4209 271.336 102.021 282.265 114.05 286.376V278.742C114.05 273.223 118.801 268.71 124.612 268.71C130.434 268.71 135.173 273.223 135.173 278.742V286.376C147.197 282.265 155.796 271.33 155.796 258.492Z" fill="url(#paint13_linear)"/>
<path d="M124.815 264.116H124.396C123.477 264.116 122.731 264.862 122.731 265.782V275.016C122.731 275.936 123.477 276.681 124.396 276.681H124.815C125.735 276.681 126.481 275.936 126.481 275.016V265.782C126.481 264.862 125.735 264.116 124.815 264.116Z" fill="url(#paint14_linear)"/>
<path d="M124.629 265.805C131.25 265.805 136.617 260.706 136.617 254.416C136.617 248.127 131.25 243.028 124.629 243.028C118.008 243.028 112.641 248.127 112.641 254.416C112.641 260.706 118.008 265.805 124.629 265.805Z" fill="url(#paint15_linear)"/>
<path d="M124.612 268.71C118.789 268.71 114.05 273.223 114.05 278.742V286.376C120.897 288.699 128.32 288.699 135.168 286.376V278.742C135.168 273.223 130.417 268.71 124.612 268.71Z" fill="url(#paint16_linear)"/>
<path d="M112.518 253.782C111.56 252.031 111.116 250.045 111.237 248.052C111.312 247.054 111.585 246.08 112.041 245.188C112.497 244.296 113.126 243.504 113.892 242.859C115.639 241.444 118.009 240.943 120.297 240.769C122.585 240.594 124.903 240.699 127.156 240.279C130.862 239.59 134.149 237.471 136.309 234.381C136.534 236.046 136.515 237.734 136.256 239.394C136.114 240.236 135.797 241.039 135.327 241.752C134.857 242.465 134.244 243.072 133.526 243.534C135.348 242.737 135.15 244.611 134.754 245.735C135.657 246.771 137.852 246.94 137.962 248.279C138.144 249.617 137.986 250.979 137.502 252.239C136.949 253.473 137.543 255.651 136.134 255.732" fill="url(#paint17_linear)"/>
<path d="M154.213 254.125C154.212 248.701 152.722 243.379 149.905 238.743C147.088 234.107 143.052 230.333 138.238 227.832C133.423 225.332 128.015 224.202 122.602 224.565C117.189 224.927 111.98 226.769 107.541 229.889C103.104 233.009 99.6072 237.287 97.4337 242.259C95.2608 247.229 94.4934 252.701 95.2165 258.078C95.9396 263.455 98.1248 268.529 101.534 272.749C104.943 276.969 109.446 280.172 114.55 282.009V274.387C114.558 271.729 115.618 269.182 117.497 267.302C119.377 265.423 121.924 264.363 124.582 264.355C127.246 264.355 129.801 265.411 131.686 267.292C133.572 269.172 134.636 271.724 134.644 274.387V282.02C140.379 279.949 145.336 276.159 148.838 271.167C152.34 266.174 154.217 260.224 154.213 254.125Z" fill="#B852FF"/>
<path d="M124.705 259.75H124.472C123.552 259.75 122.807 260.495 122.807 261.415V270.649C122.807 271.569 123.552 272.314 124.472 272.314H124.705C125.624 272.314 126.37 271.569 126.37 270.649V261.415C126.37 260.495 125.624 259.75 124.705 259.75Z" fill="white" stroke="white" stroke-miterlimit="10"/>
<path d="M124.605 261.438C130.895 261.438 135.994 256.339 135.994 250.05C135.994 243.76 130.895 238.661 124.605 238.661C118.316 238.661 113.217 243.76 113.217 250.05C113.217 256.339 118.316 261.438 124.605 261.438Z" fill="white" stroke="white" stroke-miterlimit="10"/>
<path d="M124.588 264.344C121.928 264.351 119.379 265.412 117.499 267.294C115.619 269.177 114.561 271.727 114.556 274.387V282.02C121.042 284.345 128.134 284.345 134.62 282.02V274.387C134.616 271.727 133.558 269.177 131.678 267.294C129.797 265.412 127.248 264.351 124.588 264.344Z" fill="white" stroke="white" stroke-miterlimit="10"/>
<path d="M113.101 249.421C112.188 247.655 111.767 245.676 111.884 243.691C112.016 241.697 112.923 239.833 114.411 238.498C116.07 237.083 118.318 236.582 120.489 236.407C122.661 236.233 124.862 236.338 127.005 235.918C128.773 235.56 130.453 234.855 131.946 233.842C133.439 232.83 134.716 231.531 135.703 230.02C135.918 231.685 135.902 233.372 135.657 235.033C135.528 235.864 135.232 236.659 134.785 237.371C134.338 238.083 133.752 238.696 133.06 239.173C134.807 238.375 134.603 240.25 134.224 241.374C135.08 242.41 137.136 242.579 137.269 243.918C137.442 245.254 137.293 246.612 136.833 247.878C136.309 249.112 136.868 251.29 135.534 251.371" fill="white"/>
<path d="M113.101 249.421C112.188 247.655 111.767 245.676 111.884 243.691C112.016 241.697 112.923 239.833 114.411 238.498C116.07 237.083 118.318 236.582 120.489 236.407C122.661 236.233 124.862 236.338 127.005 235.918C128.773 235.56 130.453 234.855 131.946 233.842C133.439 232.83 134.716 231.531 135.703 230.02C135.918 231.685 135.902 233.372 135.657 235.033C135.528 235.864 135.232 236.659 134.785 237.371C134.338 238.083 133.752 238.696 133.06 239.173C134.807 238.375 134.603 240.25 134.224 241.374C135.08 242.41 137.136 242.579 137.269 243.918C137.442 245.254 137.293 246.612 136.833 247.878C136.309 249.112 136.868 251.29 135.534 251.371" stroke="white" stroke-miterlimit="10"/>
<path d="M133.706 238.871C133.706 238.871 141.654 239.563 135.994 251.36L133.706 238.871Z" fill="white"/>
<path opacity="0.1" d="M182.906 295.604H65.6421V394.154H182.906V295.604Z" fill="black"/>
<path d="M145.485 316.809H88.0991V322.422H145.485V316.809Z" fill="white"/>
<path d="M284.577 230.108H227.191V235.72H284.577V230.108Z" fill="#BDBDBD"/>
<path d="M432.402 263.791H227.191V269.403H432.402V263.791Z" fill="#E0E0E0"/>
<path d="M432.402 297.473H227.191V303.086H432.402V297.473Z" fill="#E0E0E0"/>
<path d="M284.577 331.156H227.191V336.769H284.577V331.156Z" fill="#B852FF"/>
<path d="M358.178 331.156H300.792V336.769H358.178V331.156Z" fill="#F5F5F5"/>
<path d="M432.408 331.156H375.022V336.769H432.408V331.156Z" fill="#B852FF"/>
<path d="M159.208 329.91H88.0991V335.522H159.208V329.91Z" fill="white"/>
</g>
<defs>
<linearGradient id="paint0_linear" x1="276.825" y1="276.608" x2="217.522" y2="59.3869" gradientUnits="userSpaceOnUse">
<stop stop-color="#808080" stop-opacity="0.25"/>
<stop offset="0.54" stop-color="#808080" stop-opacity="0.12"/>
<stop offset="1" stop-color="#808080" stop-opacity="0.1"/>
</linearGradient>
<linearGradient id="paint1_linear" x1="89.0218" y1="210.388" x2="73.876" y2="154.91" gradientUnits="userSpaceOnUse">
<stop stop-opacity="0.12"/>
<stop offset="0.55" stop-opacity="0.09"/>
<stop offset="1" stop-opacity="0.02"/>
</linearGradient>
<linearGradient id="paint2_linear" x1="-109.786" y1="3654.55" x2="-181.197" y2="3392.97" gradientUnits="userSpaceOnUse">
<stop stop-opacity="0.12"/>
<stop offset="0.55" stop-opacity="0.09"/>
<stop offset="1" stop-opacity="0.02"/>
</linearGradient>
<linearGradient id="paint3_linear" x1="-7410.25" y1="7861.43" x2="-7644.95" y2="7001.81" gradientUnits="userSpaceOnUse">
<stop stop-opacity="0.12"/>
<stop offset="0.55" stop-opacity="0.09"/>
<stop offset="1" stop-opacity="0.02"/>
</linearGradient>
<linearGradient id="paint4_linear" x1="-9060.84" y1="5716.63" x2="-9060.84" y2="5040.66" gradientUnits="userSpaceOnUse">
<stop stop-opacity="0.12"/>
<stop offset="0.55" stop-opacity="0.09"/>
<stop offset="1" stop-opacity="0.02"/>
</linearGradient>
<linearGradient id="paint5_linear" x1="-10714.3" y1="5572.41" x2="-10714.3" y2="4655.92" gradientUnits="userSpaceOnUse">
<stop stop-opacity="0.12"/>
<stop offset="0.55" stop-opacity="0.09"/>
<stop offset="1" stop-opacity="0.02"/>
</linearGradient>
<linearGradient id="paint6_linear" x1="158.272" y1="153.794" x2="176.325" y2="148.866" gradientUnits="userSpaceOnUse">
<stop stop-opacity="0.09"/>
<stop offset="0.55" stop-opacity="0.07"/>
<stop offset="1" stop-opacity="0.02"/>
</linearGradient>
<linearGradient id="paint7_linear" x1="-47.3413" y1="4018.2" x2="532.869" y2="3859.8" gradientUnits="userSpaceOnUse">
<stop stop-opacity="0.09"/>
<stop offset="0.55" stop-opacity="0.07"/>
<stop offset="1" stop-opacity="0.02"/>
</linearGradient>
<linearGradient id="paint8_linear" x1="3212.41" y1="3100.34" x2="3792.62" y2="2941.94" gradientUnits="userSpaceOnUse">
<stop stop-opacity="0.09"/>
<stop offset="0.55" stop-opacity="0.07"/>
<stop offset="1" stop-opacity="0.02"/>
</linearGradient>
<linearGradient id="paint9_linear" x1="-2405.12" y1="7752.25" x2="-1824.91" y2="7593.82" gradientUnits="userSpaceOnUse">
<stop stop-opacity="0.09"/>
<stop offset="0.55" stop-opacity="0.07"/>
<stop offset="1" stop-opacity="0.02"/>
</linearGradient>
<linearGradient id="paint10_linear" x1="755.186" y1="6862.36" x2="1335.4" y2="6703.99" gradientUnits="userSpaceOnUse">
<stop stop-opacity="0.09"/>
<stop offset="0.55" stop-opacity="0.07"/>
<stop offset="1" stop-opacity="0.02"/>
</linearGradient>
<linearGradient id="paint11_linear" x1="4014.95" y1="5944.52" x2="4595.16" y2="5786.11" gradientUnits="userSpaceOnUse">
<stop stop-opacity="0.09"/>
<stop offset="0.55" stop-opacity="0.07"/>
<stop offset="1" stop-opacity="0.02"/>
</linearGradient>
<linearGradient id="paint12_linear" x1="223396" y1="154756" x2="223396" y2="67676.3" gradientUnits="userSpaceOnUse">
<stop stop-color="#808080" stop-opacity="0.25"/>
<stop offset="0.54" stop-color="#808080" stop-opacity="0.12"/>
<stop offset="1" stop-color="#808080" stop-opacity="0.1"/>
</linearGradient>
<linearGradient id="paint13_linear" x1="23345.1" y1="34656" x2="23345.1" y2="28974.8" gradientUnits="userSpaceOnUse">
<stop stop-opacity="0.12"/>
<stop offset="0.55" stop-opacity="0.09"/>
<stop offset="1" stop-opacity="0.02"/>
</linearGradient>
<linearGradient id="paint14_linear" x1="925.23" y1="6234.78" x2="925.23" y2="5963.75" gradientUnits="userSpaceOnUse">
<stop stop-opacity="0.12"/>
<stop offset="0.55" stop-opacity="0.09"/>
<stop offset="1" stop-opacity="0.02"/>
</linearGradient>
<linearGradient id="paint15_linear" x1="5244.86" y1="10641.1" x2="5244.86" y2="9750.28" gradientUnits="userSpaceOnUse">
<stop stop-opacity="0.12"/>
<stop offset="0.55" stop-opacity="0.09"/>
<stop offset="1" stop-opacity="0.02"/>
</linearGradient>
<linearGradient id="paint16_linear" x1="7986.13" y1="11944.3" x2="7986.13" y2="11297.4" gradientUnits="userSpaceOnUse">
<stop stop-opacity="0.12"/>
<stop offset="0.55" stop-opacity="0.09"/>
<stop offset="1" stop-opacity="0.02"/>
</linearGradient>
<linearGradient id="paint17_linear" x1="10109.1" y1="11891.7" x2="10109.1" y2="11108.1" gradientUnits="userSpaceOnUse">
<stop stop-opacity="0.12"/>
<stop offset="0.55" stop-opacity="0.09"/>
<stop offset="1" stop-opacity="0.02"/>
</linearGradient>
<clipPath id="clip0">
<rect width="514.119" height="400" fill="white"/>
</clipPath>
</defs>
</svg>
