<svg width="1036" height="612" viewBox="0 0 1036 612" fill="none" xmlns="http://www.w3.org/2000/svg">
<g clip-path="url(#clip0)">
<path opacity="0.2" d="M151.4 0.0701155C143.34 -0.159884 135.08 0.0701077 127.52 2.39011C106.95 8.71011 97.2002 29.3901 100.37 47.2601C103.54 65.1301 116.58 80.7001 130.11 94.9301C143.64 109.16 158.3 123.23 165.72 140.24C169.42 148.73 171.15 158.24 167.39 166.72C161.59 179.79 144.1 187.09 127.31 188.61C110.52 190.13 93.6602 187.17 76.8102 186.18C69.7402 185.77 62.4702 185.72 55.8102 187.63C48.5002 189.71 42.4102 193.96 36.8102 198.39C14.9602 215.77 -2.52975 239.48 0.300251 264.39C3.50025 292.62 32.0403 314.93 63.3003 326.9C73.6503 330.9 84.6003 334.08 93.7103 339.74C117.71 354.67 123.1 382.67 120.71 407.38C118.32 432.09 110.18 456.83 114.71 481.32C120.04 509.81 143.63 535.55 175.45 547.57C203.8 558.28 239.28 557.57 264.45 542.46C276.72 535.08 286 524.83 294.07 514.23C306.053 498.576 315.952 481.433 323.52 463.23C327.03 454.74 330.33 445.61 338.52 439.71C343.52 436.08 350 434.05 356.41 432.47C375.73 427.71 396.08 426.41 415.58 422.17C435.08 417.93 454.7 410 465.3 395.9C480.3 375.9 473.3 350.28 473.37 326.76C473.49 273.1 512.48 225.07 526.87 172.76C531.57 155.67 533.32 136.76 522.82 121.51C515.69 111.16 503.66 103.69 491.02 97.9201C463.21 85.2301 431.6 79.5801 400.51 74.0801C357.3 66.4401 304.83 65.4501 271.34 40.7301C239.2 17.0001 195.23 0.0701155 151.4 0.0701155Z" fill="#B751FD"/>
<path d="M571 612C827.812 612 1036 556.25 1036 487.48C1036 418.709 827.812 362.96 571 362.96C314.188 362.96 106 418.709 106 487.48C106 556.25 314.188 612 571 612Z" fill="#F5F5F5"/>
<path d="M957.18 186.86C957.18 186.86 921.35 222.69 941.58 275.86C961.81 329.03 906.9 417.45 906.9 417.45C906.9 417.45 907.49 417.36 908.58 417.17C982.17 404.17 1018.74 320.01 977.82 257.48C962.61 234.24 950.12 207 957.18 186.86Z" fill="#B751FD"/>
<path d="M957.18 186.86C957.18 186.86 936.95 230.78 957.18 266.61C977.41 302.44 960.65 403 906.9 417.45" stroke="#535461" stroke-width="2" stroke-miterlimit="10"/>
<path d="M1021 331.79C1021 331.79 980.11 325.28 976.39 361.92C972.67 398.56 897.77 403.64 897.77 403.64L899.17 404.57C961.01 445.16 1020.17 430.43 1011.17 376.57C1007.9 356.49 1008.17 336.36 1021 331.79Z" fill="#B751FD"/>
<path opacity="0.2" d="M1021 331.79C1021 331.79 980.11 325.28 976.39 361.92C972.67 398.56 897.77 403.64 897.77 403.64L899.17 404.57C961.01 445.16 1020.17 430.43 1011.17 376.57C1007.9 356.49 1008.17 336.36 1021 331.79Z" fill="#F5F5F5"/>
<path d="M1021 331.79C1021 331.79 989.26 338.79 991.87 367.61C994.48 396.43 944.74 431.06 897.77 403.61" stroke="#535461" stroke-width="2" stroke-miterlimit="10"/>
<path d="M864.37 419.5C864.37 413.659 864.375 413.671 864.37 410.35V117.79C864.37 112.085 862.104 106.614 858.07 102.58C854.036 98.5463 848.565 96.28 842.86 96.28H345.52C342.694 96.2787 339.896 96.8341 337.285 97.9145C334.675 98.9949 332.302 100.579 330.304 102.577C328.305 104.574 326.72 106.946 325.638 109.556C324.557 112.167 324 114.964 324 117.79V410.36C323.995 413.681 324.762 416.957 326.24 419.93H259.73C258.221 419.93 256.774 420.53 255.707 421.597C254.64 422.664 254.04 424.111 254.04 425.62V430.21C254.048 438.644 257.404 446.73 263.37 452.691C269.337 458.652 277.426 462 285.86 462L856.5 462.5C864.37 452.5 856.5 462.5 864.37 452.5C864.37 438.5 864.37 438.619 864.37 430.18C864.365 428.674 864.37 430 864.37 419.5ZM530.48 438.12L525 431.87H661.72L655.62 438.13L530.48 438.12Z" fill="url(#paint0_linear)"/>
<path d="M834.97 100.42H353.37C340.524 100.42 330.11 110.834 330.11 123.68V405.15C330.11 417.996 340.524 428.41 353.37 428.41L831 457C843.846 457 858.23 439.846 858.23 427V123.68C858.23 110.834 847.816 100.42 834.97 100.42Z" fill="#535461"/>
<path d="M845.99 148.23H341.22V416.18H845.99V148.23Z" fill="white"/>
<path d="M593.61 129.33C596.068 129.33 598.06 127.338 598.06 124.88C598.06 122.422 596.068 120.43 593.61 120.43C591.153 120.43 589.16 122.422 589.16 124.88C589.16 127.338 591.153 129.33 593.61 129.33Z" fill="white"/>
<path d="M630.6 417L614.995 434.729H504.996L490.902 417H267.001C265.674 417 264.403 417.584 263.465 418.623C262.527 419.662 262 421.071 262 422.541V427.006C262 435.226 264.947 443.11 270.193 448.922C275.439 454.735 282.553 458 289.972 458H830.028C837.447 458 844.561 454.735 849.807 448.922C855.053 443.11 858 435.226 858 427.006V422.541C858 421.071 857.473 419.662 856.535 418.623C855.597 417.584 854.325 417 852.999 417H630.6Z" fill="#535461"/>
<path d="M498.41 157.65H285.48C280.308 157.645 275.344 159.694 271.682 163.347C268.02 167 265.958 171.957 265.95 177.13V472.13C265.958 477.303 268.02 482.26 271.682 485.913C275.344 489.566 280.308 491.615 285.48 491.61H498.41C503.583 491.615 508.546 489.566 512.208 485.913C515.87 482.26 517.932 477.303 517.94 472.13V177.13C517.932 171.957 515.87 167 512.208 163.347C508.546 159.694 503.583 157.645 498.41 157.65Z" fill="url(#paint1_linear)"/>
<path d="M494.94 161.65H288.94C277.894 161.65 268.94 170.604 268.94 181.65V468.65C268.94 479.696 277.894 488.65 288.94 488.65H494.94C505.986 488.65 514.94 479.696 514.94 468.65V181.65C514.94 170.604 505.986 161.65 494.94 161.65Z" fill="#535461"/>
<path d="M502.44 192.58H281.44V457.72H502.44V192.58Z" fill="white"/>
<path d="M390.94 179.65C392.597 179.65 393.94 178.307 393.94 176.65C393.94 174.993 392.597 173.65 390.94 173.65C389.283 173.65 387.94 174.993 387.94 176.65C387.94 178.307 389.283 179.65 390.94 179.65Z" fill="white"/>
<path d="M390.94 481.65C395.911 481.65 399.94 477.62 399.94 472.65C399.94 467.679 395.911 463.65 390.94 463.65C385.969 463.65 381.94 467.679 381.94 472.65C381.94 477.62 385.969 481.65 390.94 481.65Z" fill="white"/>
<path d="M336.11 257.65H226.78C225.361 257.647 223.954 257.924 222.642 258.465C221.329 259.006 220.136 259.8 219.13 260.802C218.125 261.804 217.326 262.994 216.781 264.305C216.235 265.615 215.953 267.02 215.95 268.44V507.86C215.953 509.279 216.235 510.685 216.781 511.995C217.326 513.306 218.125 514.496 219.13 515.498C220.136 516.5 221.329 517.294 222.642 517.835C223.954 518.376 225.361 518.653 226.78 518.65H336.11C337.53 518.653 338.936 518.376 340.249 517.835C341.561 517.294 342.754 516.5 343.76 515.498C344.766 514.496 345.564 513.306 346.11 511.995C346.655 510.685 346.938 509.279 346.94 507.86V268.44C346.938 267.02 346.655 265.615 346.11 264.305C345.564 262.994 344.766 261.804 343.76 260.802C342.754 259.8 341.561 259.006 340.249 258.465C338.936 257.924 337.53 257.647 336.11 257.65V257.65Z" fill="url(#paint2_linear)"/>
<path d="M334.94 259.65H227.94C221.865 259.65 216.94 264.575 216.94 270.65V506.65C216.94 512.725 221.865 517.65 227.94 517.65H334.94C341.015 517.65 345.94 512.725 345.94 506.65V270.65C345.94 264.575 341.015 259.65 334.94 259.65Z" fill="#535461"/>
<path d="M336.44 283.65H226.44V493.65H336.44V283.65Z" fill="white"/>
<path d="M268.44 272.65C268.992 272.65 269.44 272.202 269.44 271.65C269.44 271.098 268.992 270.65 268.44 270.65C267.888 270.65 267.44 271.098 267.44 271.65C267.44 272.202 267.888 272.65 268.44 272.65Z" fill="white"/>
<path d="M294.44 270.65H274.44C273.888 270.65 273.44 271.098 273.44 271.65C273.44 272.202 273.888 272.65 274.44 272.65H294.44C294.992 272.65 295.44 272.202 295.44 271.65C295.44 271.098 294.992 270.65 294.44 270.65Z" fill="white"/>
<path d="M280.94 510.65C284.806 510.65 287.94 507.516 287.94 503.65C287.94 499.784 284.806 496.65 280.94 496.65C277.074 496.65 273.94 499.784 273.94 503.65C273.94 507.516 277.074 510.65 280.94 510.65Z" fill="white"/>
<path d="M203.73 536.25C203.73 536.25 190.47 491.25 206.22 458.11C212.925 444.258 214.953 428.604 212 413.5C210.54 406.345 208.428 399.339 205.69 392.57" stroke="#535461" stroke-width="2" stroke-miterlimit="10"/>
<path d="M215.45 371.63C215.45 377.15 205.45 393.14 205.45 393.14C205.45 393.14 195.45 377.14 195.45 371.63C195.45 368.978 196.504 366.434 198.379 364.559C200.254 362.683 202.798 361.63 205.45 361.63C208.102 361.63 210.646 362.683 212.521 364.559C214.397 366.434 215.45 368.978 215.45 371.63Z" fill="#B751FD"/>
<path d="M232 402.19C229 406.82 211.92 414.82 211.92 414.82C211.92 414.82 212.23 395.96 215.23 391.33C215.912 390.163 216.824 389.147 217.91 388.343C218.996 387.538 220.234 386.962 221.549 386.649C222.863 386.337 224.228 386.294 225.56 386.523C226.892 386.753 228.163 387.25 229.298 387.985C230.432 388.719 231.406 389.676 232.16 390.798C232.914 391.919 233.433 393.182 233.686 394.509C233.939 395.837 233.919 397.202 233.63 398.522C233.34 399.843 232.785 401.09 232 402.19V402.19Z" fill="#B751FD"/>
<path d="M231.24 454.4C226.31 456.88 207.53 455.17 207.53 455.17C207.53 455.17 217.32 439.05 222.24 436.57C224.589 435.509 227.258 435.395 229.688 436.254C232.119 437.113 234.124 438.877 235.285 441.179C236.447 443.481 236.674 446.142 235.92 448.607C235.166 451.072 233.49 453.151 231.24 454.41V454.4Z" fill="#B751FD"/>
<path d="M221.8 493.79C217.36 497.07 198.56 498.55 198.56 498.55C198.56 498.55 205.48 481.01 209.92 477.73C212.056 476.305 214.659 475.756 217.189 476.198C219.719 476.639 221.982 478.037 223.509 480.102C225.037 482.166 225.711 484.739 225.393 487.288C225.075 489.836 223.788 492.164 221.8 493.79V493.79Z" fill="#B751FD"/>
<path d="M190.91 415.89C194.91 419.73 213.3 423.72 213.3 423.72C213.3 423.72 208.79 405.41 204.83 401.57C203.905 400.583 202.789 399.793 201.551 399.25C200.312 398.706 198.976 398.42 197.623 398.408C196.27 398.395 194.929 398.658 193.68 399.179C192.432 399.7 191.302 400.469 190.36 401.439C189.417 402.41 188.681 403.561 188.197 404.824C187.712 406.087 187.489 407.436 187.54 408.788C187.591 410.139 187.917 411.467 188.496 412.689C189.075 413.912 189.896 415.004 190.91 415.9V415.89Z" fill="#B751FD"/>
<path d="M180.45 462.09C185.38 464.57 204.16 462.86 204.16 462.86C204.16 462.86 194.37 446.74 189.45 444.26C188.272 443.601 186.974 443.188 185.632 443.044C184.29 442.9 182.934 443.03 181.643 443.424C180.353 443.819 179.156 444.47 178.124 445.34C177.092 446.209 176.247 447.278 175.639 448.483C175.031 449.688 174.674 451.003 174.588 452.349C174.502 453.696 174.689 455.046 175.138 456.318C175.588 457.59 176.29 458.759 177.203 459.752C178.116 460.746 179.22 461.544 180.45 462.1V462.09Z" fill="#B751FD"/>
<path d="M176.45 508.39C180.89 511.67 199.69 513.15 199.69 513.15C199.69 513.15 192.77 495.61 188.33 492.33C186.194 490.905 183.591 490.356 181.061 490.797C178.531 491.239 176.268 492.637 174.741 494.701C173.214 496.766 172.539 499.339 172.857 501.888C173.176 504.436 174.462 506.764 176.45 508.39Z" fill="#B751FD"/>
</g>
<defs>
<linearGradient id="paint0_linear" x1="593.05" y1="462.02" x2="593.05" y2="96.27" gradientUnits="userSpaceOnUse">
<stop stop-color="#808080" stop-opacity="0.25"/>
<stop offset="0.54" stop-color="#808080" stop-opacity="0.12"/>
<stop offset="1" stop-color="#808080" stop-opacity="0.1"/>
</linearGradient>
<linearGradient id="paint1_linear" x1="119694" y1="212439" x2="119694" y2="100897" gradientUnits="userSpaceOnUse">
<stop stop-color="#808080" stop-opacity="0.25"/>
<stop offset="0.54" stop-color="#808080" stop-opacity="0.12"/>
<stop offset="1" stop-color="#808080" stop-opacity="0.1"/>
</linearGradient>
<linearGradient id="paint2_linear" x1="47823" y1="173209" x2="47823" y2="105088" gradientUnits="userSpaceOnUse">
<stop stop-color="#808080" stop-opacity="0.25"/>
<stop offset="0.54" stop-color="#808080" stop-opacity="0.12"/>
<stop offset="1" stop-color="#808080" stop-opacity="0.1"/>
</linearGradient>
<clipPath id="clip0">
<rect width="1036" height="612" fill="white"/>
</clipPath>
</defs>
</svg>
