<svg width="588" height="358" viewBox="0 0 588 358" fill="none" xmlns="http://www.w3.org/2000/svg">
<g clip-path="url(#clip0)">
<g opacity="0.5">
<path opacity="0.5" d="M258.393 0H0V212.727H258.393V0Z" fill="url(#paint0_linear)"/>
</g>
<path d="M254.882 4.02417H3.0127V209.208H254.882V4.02417Z" fill="#F2F2F2"/>
<path d="M254.882 4.02417H3.0127V49.7889H254.882V4.02417Z" fill="#B852FF"/>
<path opacity="0.1" d="M254.882 4.02417H3.0127V49.7889H254.882V4.02417Z" fill="black"/>
<path d="M234.813 66.3794H23.0815V93.0334H234.813V66.3794Z" fill="#E0E0E0"/>
<path d="M177.613 113.149H23.0815V122.202H177.613V113.149Z" fill="#E0E0E0"/>
<path d="M123.426 128.741H23.0815V137.794H123.426V128.741Z" fill="#E0E0E0"/>
<path d="M155.54 144.332H23.0815V153.385H155.54V144.332Z" fill="#E0E0E0"/>
<path d="M177.613 159.918H23.0815V168.971H177.613V159.918Z" fill="#E0E0E0"/>
<path d="M74.7601 175.51H23.0815V184.563H74.7601V175.51Z" fill="#E0E0E0"/>
<g opacity="0.5">
<path opacity="0.5" d="M588 0H329.607V212.727H588V0Z" fill="url(#paint1_linear)"/>
</g>
<path d="M333.124 209.202L584.993 209.202V4.01851L333.124 4.01851V209.202Z" fill="#F2F2F2"/>
<path d="M333.124 49.7832L584.993 49.7832V4.01844L333.124 4.01844V49.7832Z" fill="#B852FF"/>
<path opacity="0.1" d="M333.124 49.7832L584.993 49.7832V4.01844L333.124 4.01844V49.7832Z" fill="black"/>
<path d="M353.193 93.0393L564.924 93.0393V66.3853L353.193 66.3853V93.0393Z" fill="#E0E0E0"/>
<path d="M410.387 122.208L564.918 122.208V113.155L410.387 113.155V122.208Z" fill="#E0E0E0"/>
<path d="M464.574 137.794H564.918V128.741H464.574V137.794Z" fill="#E0E0E0"/>
<path d="M432.466 153.38L564.924 153.38V144.327L432.466 144.327V153.38Z" fill="#E0E0E0"/>
<path d="M410.387 168.971L564.918 168.971V159.918L410.387 159.918V168.971Z" fill="#E0E0E0"/>
<path d="M513.246 184.563H564.924V175.51H513.246V184.563Z" fill="#E0E0E0"/>
<g opacity="0.5">
<path opacity="0.5" d="M455.374 92.813H133.252V358.006H455.374V92.813Z" fill="url(#paint2_linear)"/>
</g>
<path d="M451 97.8242H137.006V353.61H451V97.8242Z" fill="white"/>
<path d="M451 97.8242H137.006V154.872H451V97.8242Z" fill="#B852FF"/>
<path d="M425.977 175.562H162.023V208.79H425.977V175.562Z" fill="#F5F5F5"/>
<path d="M354.67 233.87H162.023V245.153H354.67V233.87Z" fill="#E0E0E0"/>
<path d="M287.117 253.306H162.023V264.589H287.117V253.306Z" fill="#E0E0E0"/>
<path d="M327.151 272.736H162.023V284.019H327.151V272.736Z" fill="#E0E0E0"/>
<path d="M354.67 292.172H162.023V303.455H354.67V292.172Z" fill="#E0E0E0"/>
<path d="M226.447 311.608H162.023V322.891H226.447V311.608Z" fill="#E0E0E0"/>
<path d="M250.838 186.851H175.782V196.88H250.838V186.851Z" fill="#B852FF"/>
</g>
<defs>
<linearGradient id="paint0_linear" x1="129.196" y1="212.727" x2="129.196" y2="0" gradientUnits="userSpaceOnUse">
<stop stop-color="#808080" stop-opacity="0.25"/>
<stop offset="0.54" stop-color="#808080" stop-opacity="0.12"/>
<stop offset="1" stop-color="#808080" stop-opacity="0.1"/>
</linearGradient>
<linearGradient id="paint1_linear" x1="-81082" y1="102412" x2="-81082" y2="24485.9" gradientUnits="userSpaceOnUse">
<stop stop-color="#808080" stop-opacity="0.25"/>
<stop offset="0.54" stop-color="#808080" stop-opacity="0.12"/>
<stop offset="1" stop-color="#808080" stop-opacity="0.1"/>
</linearGradient>
<linearGradient id="paint2_linear" x1="163771" y1="163584" x2="163771" y2="42478.6" gradientUnits="userSpaceOnUse">
<stop stop-color="#808080" stop-opacity="0.25"/>
<stop offset="0.54" stop-color="#808080" stop-opacity="0.12"/>
<stop offset="1" stop-color="#808080" stop-opacity="0.1"/>
</linearGradient>
<clipPath id="clip0">
<rect width="588" height="358" fill="white"/>
</clipPath>
</defs>
</svg>
